<svg id="_01_anesthesia" data-name="01_anesthesia" xmlns="http://www.w3.org/2000/svg" xmlns:xlink="http://www.w3.org/1999/xlink" width="124" height="124" viewBox="0 0 124 124">
  <defs>
    <style>
      .cls-1 {
        fill: url(#linear-gradient);
      }

      .cls-2 {
        fill: #fff;
        fill-rule: evenodd;
      }
    </style>
    <linearGradient id="linear-gradient" x1="62" y1="124" x2="62" gradientUnits="userSpaceOnUse">
      <stop offset="0" stop-color="#03a9d5"/>
      <stop offset="1" stop-color="#47ccd7"/>
    </linearGradient>
  </defs>
  <circle id="_01_anesthesia-2" data-name="01_anesthesia" class="cls-1" cx="62" cy="62" r="62"/>
  <path class="cls-2" d="M386,460.741V426.554c4.341,0.634,8.2,2.292,11.029,5.648,1.228,1.46,2.512,1.639,4.263,1.318,0.085-2.509-.27-5.14,1.774-7.375,1.675,2.583,4.018,2.242,6.507,1.491q4.361-1.317,8.773-2.461c1.977-.513,3.893-1.027,4.487-3a49.2,49.2,0,0,0,6.133,1.363c7.634,0.7,12.5,4.918,15.5,11.526A38.685,38.685,0,0,1,446,440.111v4.126c-0.1.322-.218,0.639-0.283,0.967-1.5,7.561-5.96,12.713-13.443,14.907-7.622,2.235-14.262.186-19.793-5.437a3.211,3.211,0,0,0-2-.888c-3.6-.087-7.193-0.007-10.789-0.063a2.489,2.489,0,0,0-2.13,1.007A16.308,16.308,0,0,1,386,460.741Zm39.529-16.5c-0.583,2.72-1.812,4.012-3.826,4.1s-3.135-1.017-4.238-4.183l-1.661.086c0.143,3.754,2.678,6.143,6.124,5.959a5.5,5.5,0,0,0,5.272-5.958h-1.671Zm0.949-15.1a10.614,10.614,0,0,0-.045-2.194,1.455,1.455,0,0,0-.963-0.868,1.2,1.2,0,0,0-.852.781,30.28,30.28,0,0,0-.02,4.249,2.553,2.553,0,0,0,.954.921,3.069,3.069,0,0,0,.889-0.99A7.8,7.8,0,0,0,426.478,429.145ZM386,412.7c3.777,2.394,7.464,1.659,11.169-.234,5.132-2.62,9.781-1.694,13.614,2.54a6.289,6.289,0,0,0,1.939,1.074c2.4,1.175,4.871,2.218,7.174,3.547a1.524,1.524,0,0,1-.5,2.831q-6.089,1.8-12.236,3.4c-1.338.351-2.235-.529-2.281-1.989-0.065-2.091.9-4.039,3.105-6.294-1.918-2.945-5.3-3.733-8.787-2.15a35.064,35.064,0,0,1-5.136,1.967,12.174,12.174,0,0,1-8.059-.569V412.7Z" transform="translate(-354 -374)"/>
</svg>
