<svg id="_02_antibiotics" data-name="02_antibiotics" xmlns="http://www.w3.org/2000/svg" xmlns:xlink="http://www.w3.org/1999/xlink" width="124" height="124" viewBox="0 0 124 124">
  <defs>
    <style>
      .cls-1 {
        fill: url(#linear-gradient);
      }

      .cls-2 {
        fill: #fff;
        fill-rule: evenodd;
      }
    </style>
    <linearGradient id="linear-gradient" x1="62" x2="62" y2="124" gradientUnits="userSpaceOnUse">
      <stop offset="0" stop-color="#add100"/>
      <stop offset="1" stop-color="#95b10c"/>
    </linearGradient>
  </defs>
  <circle id="_01_anesthesia" data-name="01_anesthesia" class="cls-1" cx="62" cy="62" r="62"/>
  <path class="cls-2" d="M670,437.293a9.606,9.606,0,0,1-4.1,7.871c-7.766,5.658-15.522,11.33-23.325,16.934a9.535,9.535,0,0,1-15.188-6.547,8.917,8.917,0,0,1,3.348-8.65c3.133-2.489,6.436-4.761,9.673-7.117q7.065-5.14,14.142-10.264A9.625,9.625,0,0,1,670,437.293Zm-11.755,9.86c2.193-1.609,4.379-3.1,6.436-4.756A6.278,6.278,0,0,0,667,436.143a6.672,6.672,0,0,0-10.569-4.4c-1.966,1.38-3.89,2.82-5.834,4.23a1.8,1.8,0,0,1-.232.124Zm-18.768-9.024-2.352,1.719-1.9-3.8-12,6.073c0.263,0.541.509,1.059,0.763,1.573,0.811,1.637,1.628,3.271,2.432,4.912a0.851,0.851,0,0,1,.121.556c-0.35,1.04-.738,2.068-1.166,3.242-0.533-.871-1.1-1.667-1.536-2.531-2.041-4.053-4.045-8.124-6.062-12.188-2.232-4.5-4.477-8.986-6.692-13.49a9.732,9.732,0,0,1,3.135-12.519,9.5,9.5,0,0,1,13.655,3.156c1.877,3.478,3.559,7.064,5.321,10.606q3,6.04,5.994,12.088C639.278,437.7,639.361,437.885,639.477,438.129ZM639,417.965c-1.289-.875-2.538-1.734-3.8-2.575a8.426,8.426,0,0,0-3.193-1.713,20.592,20.592,0,0,0-2.255-.1,0.678,0.678,0,0,1-.451-0.134c-0.473-.59-0.914-1.206-1.4-1.857a7.5,7.5,0,0,1,5.549-.014,12.955,12.955,0,0,1,2.4,1.33q9.483,6.375,18.941,12.788c0.38,0.257.746,0.534,1.167,0.836-0.131.091-.215,0.156-0.306,0.211-0.733.444-1.5,0.837-2.2,1.337q-5.576,4.016-11.115,8.083a0.734,0.734,0,0,1-.981.019,4.275,4.275,0,0,1-1.689-1.941c-1.514-3.147-3.079-6.269-4.646-9.39a0.836,0.836,0,0,1,.057-0.978c1.194-1.76,2.362-3.538,3.538-5.31C638.74,418.376,638.854,418.191,639,417.965Z" transform="translate(-578 -374)"/>
</svg>
