<svg id="_03_antifungal" data-name="03_antifungal" xmlns="http://www.w3.org/2000/svg" xmlns:xlink="http://www.w3.org/1999/xlink" width="124" height="124" viewBox="0 0 124 124">
  <defs>
    <style>
      .cls-1 {
        fill: url(#linear-gradient);
      }

      .cls-2 {
        fill: #fff;
        fill-rule: evenodd;
      }
    </style>
    <linearGradient id="linear-gradient" x1="62" x2="62" y2="124" gradientUnits="userSpaceOnUse">
      <stop offset="0" stop-color="#ff595f"/>
      <stop offset="1" stop-color="#ef2e60"/>
    </linearGradient>
  </defs>
  <circle id="_01_anesthesia" data-name="01_anesthesia" class="cls-1" cx="62" cy="62" r="62"/>
  <path class="cls-2" d="M864.144,406a30,30,0,1,1-1.616,59.967A29.9,29.9,0,0,1,834,435.482a28.936,28.936,0,0,1,9.913-21.772A29.3,29.3,0,0,1,864.144,406Zm15.89,11.693a24.331,24.331,0,0,0-34.289,34.39l5.347-5.349c1.229-1.229,2.463-2.453,3.682-3.692a0.672,0.672,0,0,0,.223-0.5c-0.44-.772-0.925-1.517-1.41-2.291-1.2.463-2.418,0.918-3.618,1.406a0.724,0.724,0,0,0-.334.441,1.5,1.5,0,1,1-.654-1.52,0.618,0.618,0,0,0,.4.126c1.3-.483,2.589-0.989,3.871-1.485-0.143-.826-0.276-1.591-0.406-2.343a0.419,0.419,0,0,0-.125-0.052c-1.948-.007-3.9-0.021-5.844,0a0.759,0.759,0,0,0-.484.362,2.1,2.1,0,1,1-2.534-3.012,2.044,2.044,0,0,1,2.424.782,0.711,0.711,0,0,0,.694.364c1.757-.011,3.514,0,5.272,0h0.483c0.41-1.421.789-2.732,1.191-4.127-1.144-.9-2.394-1.87-3.628-2.861a1.079,1.079,0,0,0-1.109-.283,1.408,1.408,0,0,1-1.771-1.25,1.468,1.468,0,0,1,1.257-1.637,1.385,1.385,0,0,1,1.669,1.24,1.232,1.232,0,0,0,.634,1.1c0.279,0.2.541,0.423,0.812,0.634l2.662,2.078,3.607-3.347c-0.793-1.456-1.657-3.024-2.5-4.6a0.7,0.7,0,0,0-.688-0.446A2.042,2.042,0,0,1,852.9,420.2a2.086,2.086,0,0,1,.983-2.259,2.087,2.087,0,0,1,2.893,2.8,0.718,0.718,0,0,0-.028.557q1.27,2.4,2.594,4.775a0.477,0.477,0,0,0,.38.22c1.262-.255,2.519-0.539,3.863-0.835,0.154-.892.333-1.924,0.511-2.957a0.666,0.666,0,0,0,.029-0.282,1.506,1.506,0,0,0-.225-0.479,1.122,1.122,0,0,1,.117-1.587,1.1,1.1,0,1,1,1.268,1.79,0.793,0.793,0,0,0-.348.392c-0.208,1.1-.383,2.212-0.561,3.277l3.361,0.9c0.927-1.467,1.882-2.961,2.807-4.473a0.824,0.824,0,0,0-.024-0.611,1.5,1.5,0,1,1,1.507.9,0.724,0.724,0,0,0-.475.21c-0.975,1.5-1.927,3.012-2.9,4.543l1.172,0.811Zm-30.157,38.166a24.336,24.336,0,0,0,32.687-4.049c7.973-9.3,7.215-22.1,1.3-29.834-1.594,1.6-3.276,3.118-4.729,4.83a11.879,11.879,0,0,1-1.763,1.753c-1.37,1.077-2.544,2.4-3.812,3.61a0.773,0.773,0,0,0-.232.853,23.192,23.192,0,0,1,.462,2.641,16.9,16.9,0,0,1,.013,1.886c2.048,0.347,4.1.688,6.145,1.048a0.578,0.578,0,0,0,.658-0.272,2.6,2.6,0,0,1,2.668-1.061,2.74,2.74,0,1,1-3.018,3.729,0.775,0.775,0,0,0-.44-0.43q-3.069-.556-6.151-1.043a0.552,0.552,0,0,0-.47.23,11.178,11.178,0,0,1-2.326,3.69c0.048,0.084.072,0.137,0.105,0.183,0.33,0.467.674,0.926,0.991,1.4a0.858,0.858,0,0,0,.76.469,1.057,1.057,0,0,1,.983,1.233,1.1,1.1,0,0,1-1.3.917,1.083,1.083,0,0,1-.861-1.324,0.742,0.742,0,0,0,0-.467c-0.407-.615-0.847-1.208-1.266-1.795-0.607.412-1.14,0.817-1.716,1.147a0.527,0.527,0,0,0-.3.684c0.308,1.318.587,2.643,0.911,3.957a0.864,0.864,0,0,0,.433.492,1.529,1.529,0,0,1,.977,1.53,1.49,1.49,0,0,1-2.74.7A1.5,1.5,0,0,1,868,450.76a0.645,0.645,0,0,0,.163-0.436c-0.312-1.466-.648-2.928-0.973-4.37-0.76.186-1.455,0.4-2.166,0.518s-1.439.129-2.178,0.188a1.7,1.7,0,0,0-.069.26c-0.163,1.518-.337,3.036-0.469,4.556a1.022,1.022,0,0,0,.284.659,1.564,1.564,0,0,1-.041,2.17,1.525,1.525,0,0,1-2.119-.084,1.393,1.393,0,0,1,.11-2.078,1.534,1.534,0,0,0,.766-1.493c0.034-.437.1-0.871,0.146-1.308,0.1-.943.189-1.887,0.282-2.817-0.588-.151-1.1-0.311-1.625-0.4a0.824,0.824,0,0,0-.632.158C856.289,449.442,853.118,452.619,849.877,455.859Zm11.734-21.776a1.542,1.542,0,0,0-1.563-1.549,1.622,1.622,0,0,0-1.527,1.558,1.586,1.586,0,0,0,1.594,1.532A1.5,1.5,0,0,0,861.611,434.083Z" transform="translate(-802 -374)"/>
</svg>
