<svg id="_04_cardiology" data-name="04_cardiology" xmlns="http://www.w3.org/2000/svg" xmlns:xlink="http://www.w3.org/1999/xlink" width="124" height="124" viewBox="0 0 124 124">
  <defs>
    <style>
      .cls-1 {
        fill: url(#linear-gradient);
      }

      .cls-2 {
        fill: #fff;
        fill-rule: evenodd;
      }
    </style>
    <linearGradient id="linear-gradient" x1="62" y1="124" x2="62" gradientUnits="userSpaceOnUse">
      <stop offset="0" stop-color="#eb6a61"/>
      <stop offset="1" stop-color="#ffc875"/>
    </linearGradient>
  </defs>
  <circle id="_01_anesthesia" data-name="01_anesthesia" class="cls-1" cx="62" cy="62" r="62"/>
  <path class="cls-2" d="M1098.84,406a18.052,18.052,0,0,1,1.82.294,10.83,10.83,0,0,1,6.78,4.913,10.412,10.412,0,0,1,1.64,4.192,28.86,28.86,0,0,1,.08,3.482,18.181,18.181,0,0,1-1.82,6.854,32.437,32.437,0,0,1-5.33,8.682,41.483,41.483,0,0,1-9.1,8.018c-1.32.827-2.66,1.619-4,2.432a0.814,0.814,0,0,1-.9-0.016,48.245,48.245,0,0,1-7.58-5.057,39.2,39.2,0,0,1-7.64-8.219c-0.61-.9-1.16-1.852-1.74-2.782-0.06-.106-0.11-0.223-0.2-0.411,0.92-.016,1.79-0.029,2.65-0.047,1.59-.033,3.19-0.051,4.79-0.109a1.3,1.3,0,0,0,1.53-1.164c0.28-.749.64-1.469,0.97-2.2a1.029,1.029,0,0,1,.16-0.224c0.18,0.99.33,1.91,0.5,2.829q0.72,4.026,1.46,8.051c0.03,0.171.09,0.338,0.13,0.506a0.789,0.789,0,0,0,.73.6,0.846,0.846,0,0,0,.85-0.555c0.23-.693.45-1.393,0.61-2.1,1.1-4.621,2.18-9.244,3.27-13.867,0.11-.481.23-0.961,0.34-1.441l0.09-.006,0.45,1.718q0.915,3.469,1.81,6.937c0.02,0.067.05,0.131,0.07,0.2a0.884,0.884,0,0,0,1.07.778c1.76,0.027,3.52.051,5.29,0.049a0.893,0.893,0,0,1,.81.4,2.862,2.862,0,0,0,2.47,1.219,2.573,2.573,0,0,0,2.53-2.523,2.675,2.675,0,0,0-2.32-2.642,2.637,2.637,0,0,0-2.75,1.319,0.6,0.6,0,0,1-.59.326c-1.5-.015-3.01-0.014-4.51,0a0.384,0.384,0,0,1-.46-0.336q-1.35-5.456-2.74-10.906c-0.12-.46-0.27-0.915-0.43-1.361a0.849,0.849,0,0,0-.86-0.633,0.84,0.84,0,0,0-.79.722c-0.23.853-.44,1.71-0.64,2.569q-1.545,6.594-3.09,13.191a2.687,2.687,0,0,1-.29.767c-0.14-.7-0.27-1.409-0.4-2.114q-0.66-3.526-1.33-7.053a3.021,3.021,0,0,0-.14-0.5,0.718,0.718,0,0,0-.74-0.611,0.728,0.728,0,0,0-.83.481c-0.8,1.793-1.6,3.587-2.38,5.388a0.483,0.483,0,0,1-.51.347q-3.735.016-7.46,0.049a0.372,0.372,0,0,1-.41-0.233,21.072,21.072,0,0,1-1.83-5.975,24.5,24.5,0,0,1-.07-4.283,10.444,10.444,0,0,1,2.22-5.558,10.806,10.806,0,0,1,5.16-3.8,10.085,10.085,0,0,1,3.51-.532,11.851,11.851,0,0,1,8.66,3.923c0.34,0.347.67,0.709,1.01,1.063a0.1,0.1,0,1,1-.02-0.009c0.56-.52,1.1-1.015,1.63-1.517a12.29,12.29,0,0,1,5.99-3.272c0.52-.105,1.04-0.159,1.55-0.236h1.27Zm-21.66,60a3.932,3.932,0,0,1-.44-2.354,12.142,12.142,0,0,0-.51-3.641,7.789,7.789,0,0,0-4.1-4.361,50.645,50.645,0,0,1-6.8-4.073,7.671,7.671,0,0,1-2.14-2.264c-1.16-1.89-2.4-3.74-3.64-5.585a12.413,12.413,0,0,1-2.08-5.662,45.621,45.621,0,0,1-.47-5.835,8.293,8.293,0,0,1,.44-2.705,1.914,1.914,0,0,1,.82-1.051,1.429,1.429,0,0,1,1.96.418,5.285,5.285,0,0,1,.96,2.587,21.964,21.964,0,0,1,.23,2.916,7.889,7.889,0,0,0,1.27,4.489c1.01,1.561,2.01,3.137,3.1,4.641a6.815,6.815,0,0,0,4.55,2.757,7.238,7.238,0,0,0,.75.039c-0.27-.461-0.49-0.855-0.74-1.223a20.2,20.2,0,0,0-3.44-3.652,3.884,3.884,0,0,1-1.35-3.945,1.47,1.47,0,0,1,1.33-1.2,2.784,2.784,0,0,1,2.39.718c1.12,1.016,2.25,2.034,3.34,3.083a23.823,23.823,0,0,0,5.38,3.9,27.344,27.344,0,0,1,4.19,2.719,10.188,10.188,0,0,1,3.71,5.973,21.96,21.96,0,0,1,.55,5.534c-0.05,1.406-.05,2.815-0.16,4.217-0.08,1-.3,1.994-0.45,2.992a0.53,0.53,0,0,1-.6.5,6.219,6.219,0,0,0-.62.065h-7.43Zm15.63,0c-0.32-.023-0.65-0.055-0.97-0.068-0.54-.022-0.61-0.066-0.71-0.569a35.071,35.071,0,0,1-.6-8.433,23.691,23.691,0,0,1,.85-5.285,9.9,9.9,0,0,1,3.18-4.7,23.262,23.262,0,0,1,4.51-2.984,25.674,25.674,0,0,0,5.98-4.494c0.96-.922,1.95-1.8,2.96-2.666a2.558,2.558,0,0,1,2.25-.474,1.617,1.617,0,0,1,1.26,1.6,4.109,4.109,0,0,1-1.51,3.581,16.967,16.967,0,0,0-3.81,4.285c-0.09.145-.16,0.3-0.26,0.5a4.092,4.092,0,0,0,.68-0.005,6.739,6.739,0,0,0,4.27-2.434,47.015,47.015,0,0,0,3.84-5.744,7.8,7.8,0,0,0,.85-3.974,11.367,11.367,0,0,1,.64-4.25,3.875,3.875,0,0,1,.77-1.228,1.414,1.414,0,0,1,2.17.2,4.429,4.429,0,0,1,.7,2.021c0.05,0.318.09,0.639,0.14,0.958v1.746a2.543,2.543,0,0,0-.06.266c-0.13,1.226-.27,2.45-0.37,3.677a12.4,12.4,0,0,1-2.02,5.97c-1.2,1.788-2.4,3.581-3.51,5.42a9.535,9.535,0,0,1-2.8,2.965,50.542,50.542,0,0,1-6.32,3.717,7.932,7.932,0,0,0-3.99,3.938,9.871,9.871,0,0,0-.68,3.638,5.563,5.563,0,0,1-.43,2.819h-7.01Z" transform="translate(-1026 -374)"/>
</svg>
