<svg id="_05_gynecology" data-name="05_gynecology" xmlns="http://www.w3.org/2000/svg" xmlns:xlink="http://www.w3.org/1999/xlink" width="124" height="124" viewBox="0 0 124 124">
  <defs>
    <style>
      .cls-1 {
        fill: url(#linear-gradient);
      }

      .cls-2 {
        fill: #fff;
        fill-rule: evenodd;
      }
    </style>
    <linearGradient id="linear-gradient" x1="62" x2="62" y2="124" gradientUnits="userSpaceOnUse">
      <stop offset="0" stop-color="#d879ef"/>
      <stop offset="1" stop-color="#a34eb7"/>
    </linearGradient>
  </defs>
  <circle id="_01_anesthesia" data-name="01_anesthesia" class="cls-1" cx="62" cy="62" r="62"/>
  <path class="cls-2" d="M1342,419.264c-0.1.478-.18,0.959-0.29,1.433a12.836,12.836,0,0,1-2.88,5.59,1.218,1.218,0,0,0-.37.99,5.677,5.677,0,0,1-.8,3.213,8.849,8.849,0,0,1-9.29,3.878,4.013,4.013,0,0,1-3.13-3.419,4.294,4.294,0,0,1,2.32-4.394,1.954,1.954,0,0,1,.32-0.152,2.29,2.29,0,0,0,1.52-1.461,4.548,4.548,0,0,1,3.09-2.591,1.5,1.5,0,0,0,.73-0.5,3.358,3.358,0,0,0,.68-2.608,1.861,1.861,0,0,0-.53-0.927,0.544,0.544,0,0,0-.86.081c-0.46.515-.93,1.01-1.41,1.5a6,6,0,0,1-3.65,1.951,0.592,0.592,0,0,0-.41.36,13.839,13.839,0,0,1-2.51,4.95c-1,1.372-1.96,2.79-2.83,4.256a5.521,5.521,0,0,0-.13,5.672,16.606,16.606,0,0,1,1.86,6.1,6.78,6.78,0,0,1-.93,4.343,28.842,28.842,0,0,0-3.41,7.534,40,40,0,0,0-1.22,7.373c-0.09,1.343-.85,1.858-2.1,1.383-0.12-.049-0.25-0.09-0.38-0.148a7.622,7.622,0,0,0-6.88.045c-0.13.059-.26,0.1-0.39,0.149a1.361,1.361,0,0,1-1.99-1.306,35.988,35.988,0,0,0-1.62-8.785,20.875,20.875,0,0,0-2.58-5.463,8.234,8.234,0,0,1-.97-7.322,23.106,23.106,0,0,1,1.5-3.947,5.546,5.546,0,0,0-.13-5.572,49.948,49.948,0,0,0-2.86-4.309,13.809,13.809,0,0,1-2.5-4.95,0.578,0.578,0,0,0-.36-0.358,6.5,6.5,0,0,1-4.16-2.417c-0.27-.3-0.55-0.609-0.83-0.908-0.51-.538-1.21-0.458-1.38.26a4.3,4.3,0,0,0,.01,1.954,2.143,2.143,0,0,0,1.64,1.77,4.157,4.157,0,0,1,2.81,2.638,1.816,1.816,0,0,0,1.15,1.134,4.311,4.311,0,0,1,2.78,2.908,4.05,4.05,0,0,1-3,5.174,8.829,8.829,0,0,1-9.32-3.927,6.133,6.133,0,0,1-.78-3.279,1.083,1.083,0,0,0-.21-0.685,12.806,12.806,0,0,1-3.23-6.936,1.412,1.412,0,0,0-.09-0.276v-2.125l0.24-1.147c1.14-5.652,7.33-8.593,11.97-6.094,1.15,0.621,2.31,1.23,3.46,1.845a12,12,0,0,0,4.57,1.561,1.8,1.8,0,0,0,1.01-.1,16.093,16.093,0,0,1,8.02-2.261,16.415,16.415,0,0,1,9.17,2.105,2.082,2.082,0,0,0,1.39.268,12.551,12.551,0,0,0,4.45-1.54c1.19-.63,2.34-1.348,3.58-1.873a9.593,9.593,0,0,1,3.13-.871,8.468,8.468,0,0,1,8.45,5.839c0.25,0.736.37,1.514,0.56,2.273v2.125Zm-33.38,41.613a8.587,8.587,0,0,1,6.72-.036c0.1-.677.17-1.261,0.26-1.843a14.849,14.849,0,0,0,.43-2.847,60.547,60.547,0,0,1,1.02-13.966,1.339,1.339,0,0,0-1.47-1.789c-0.7-.007-1.39,0-2.15,0,0.11-.991.2-1.908,0.33-2.819a23.361,23.361,0,0,1,3.72-10.068,19.946,19.946,0,0,1,4.35-4.511,1.4,1.4,0,0,0,.65-1.3,1.237,1.237,0,0,0-.78-1.089,1.414,1.414,0,0,0-1.48.272,22.521,22.521,0,0,0-7.99,11.493c-0.06.185-.13,0.366-0.21,0.6a0.55,0.55,0,0,1-.1-0.135c-0.06-.168-0.11-0.337-0.16-0.5a22.49,22.49,0,0,0-7.97-11.438,1.351,1.351,0,0,0-2.02.136,1.377,1.377,0,0,0,.39,1.957c0.72,0.6,1.45,1.2,2.12,1.855a20.756,20.756,0,0,1,5.72,11.382c0.26,1.359.4,2.738,0.61,4.17h-1.94c-1.47,0-1.97.577-1.69,2.008a52.511,52.511,0,0,1,1.01,12.315C1307.89,456.792,1308.54,458.746,1308.62,460.877Zm-14.66-28.937a9.214,9.214,0,0,0,1.06-.172,1.35,1.35,0,0,0,1.12-1.2,1.547,1.547,0,0,0-.8-1.58,7.437,7.437,0,0,0-.9-0.407,3.408,3.408,0,0,1-2.1-2.215,1.909,1.909,0,0,0-1.74-1.438,2.014,2.014,0,0,0-2.05,1.174,3.108,3.108,0,0,0,.43,3.566A6.513,6.513,0,0,0,1293.96,431.94Zm36.04,0a6.444,6.444,0,0,0,5.06-2.336,3.022,3.022,0,0,0,.49-3.307,2.062,2.062,0,0,0-2.05-1.379,1.976,1.976,0,0,0-1.87,1.512,3.284,3.284,0,0,1-1.97,2.1,7.837,7.837,0,0,0-1.11.528,1.492,1.492,0,0,0-.69,1.516,1.335,1.335,0,0,0,1.08,1.179A9.149,9.149,0,0,0,1330,431.94Z" transform="translate(-1250 -374)"/>
</svg>
