<svg id="_06_life_saving_drug" data-name="06_life_saving_drug" xmlns="http://www.w3.org/2000/svg" xmlns:xlink="http://www.w3.org/1999/xlink" width="124" height="124" viewBox="0 0 124 124">
  <defs>
    <style>
      .cls-1 {
        fill: url(#linear-gradient);
      }

      .cls-2 {
        fill: #fff;
        fill-rule: evenodd;
      }
    </style>
    <linearGradient id="linear-gradient" x1="62" y1="124" x2="62" gradientUnits="userSpaceOnUse">
      <stop offset="0" stop-color="#03a9d5"/>
      <stop offset="1" stop-color="#47ccd7"/>
    </linearGradient>
  </defs>
  <circle id="_01_anesthesia" data-name="01_anesthesia" class="cls-1" cx="62" cy="62" r="62"/>
  <path class="cls-2" d="M422.36,604c0.584,0.079,1.174.131,1.752,0.24a14.91,14.91,0,0,1,7.893,25.117q-10.388,10.491-20.787,20.97a14.287,14.287,0,0,1-11.242,4.228,13.909,13.909,0,0,1-9.455-4.026,14.929,14.929,0,0,1-4.405-8.932c-0.038-.292-0.077-0.583-0.116-0.875v-1.9a0.557,0.557,0,0,0,.041-0.114c0.081-.606.129-1.218,0.244-1.816a14.546,14.546,0,0,1,4.123-7.69q10.531-10.517,21.053-21.043a13.886,13.886,0,0,1,7.586-3.924c0.57-.1,1.148-0.16,1.722-0.238h1.591ZM419,636.707c0.056-.047.1-0.075,0.132-0.109,3.44-3.442,6.94-6.825,10.3-10.343a10.747,10.747,0,0,0-15.164-15.222c-3.615,3.4-7.112,6.936-10.659,10.414a1.568,1.568,0,0,0-.115.148ZM432.4,663c-0.552-.08-1.112-0.125-1.656-0.244a12.552,12.552,0,0,1-9.788-8.427,12.3,12.3,0,0,1,2.25-12.264,0.106,0.106,0,0,1,.038-0.033l18.039,18.036a12.408,12.408,0,0,1-6,2.746c-0.449.075-.9,0.125-1.356,0.186H432.4Zm-7.315-22.814a12.746,12.746,0,0,1,17.377.983,12.928,12.928,0,0,1,.646,17.039Z" transform="translate(-354 -572)"/>
</svg>
