<svg id="_07_nephrology" data-name="07_nephrology" xmlns="http://www.w3.org/2000/svg" xmlns:xlink="http://www.w3.org/1999/xlink" width="124" height="124" viewBox="0 0 124 124">
  <defs>
    <style>
      .cls-1 {
        fill: url(#linear-gradient);
      }

      .cls-2 {
        fill: #fff;
        fill-rule: evenodd;
      }
    </style>
    <linearGradient id="linear-gradient" x1="62" x2="62" y2="124" gradientUnits="userSpaceOnUse">
      <stop offset="0" stop-color="#add100"/>
      <stop offset="1" stop-color="#95b10c"/>
    </linearGradient>
  </defs>
  <circle id="_01_anesthesia" data-name="01_anesthesia" class="cls-1" cx="62" cy="62" r="62"/>
  <path class="cls-2" d="M627.918,631.986c0.6,2.2,1.512,4.259,1.653,6.37,0.314,4.72-3.707,9.693-8.5,11-4.088,1.115-8.753-1.18-11.151-5.487-6.291-11.3-1.992-28.338,8.908-35.088,3.24-2.007,6.7-3.385,10.637-2.481,4.324,0.993,6.321,4.214,7.408,8.14,1.114,4.029,1.28,8.019-2.045,11.2a27.235,27.235,0,0,1-4.184,2.763c-0.038-.074-0.011.074,0.054,0.094,4.954,1.517,6.8,4.966,6.65,10.02-0.194,6.466-.059,12.942-0.082,19.414a3.631,3.631,0,0,1-.233,1.88,2.666,2.666,0,0,1-1.756,1.153,2.206,2.206,0,0,1-1.479-1.237,5.192,5.192,0,0,1-.174-2.1c-0.012-7.053.05-14.107-.043-21.16A4.673,4.673,0,0,0,627.918,631.986Zm24.609,0.183c-2.518-.878-5.682,1.014-5.934,3.587-0.208,2.119-.2,4.265-0.2,6.4,0,5.371.052,10.742,0.1,16.114,0.012,1.314-.106,2.684-1.723,2.736-1.733.055-1.94-1.336-1.94-2.741,0-6.343.136-12.69-.077-19.025-0.178-5.316,1.265-9.343,7.084-10.789a7.087,7.087,0,0,0-.679-0.437c-5.732-2.6-7.651-6.55-6.146-12.682a22.34,22.34,0,0,1,.64-2.234c2.084-5.821,6.845-8.334,12.754-6.5a21.958,21.958,0,0,1,14.106,12.681,30.128,30.128,0,0,1,.887,21.811c-1.428,4.366-4.1,7.668-8.961,8.38-4.443.649-7.545-1.718-10.013-5.019a9.464,9.464,0,0,1-.938-10.255C651.806,633.51,652.175,632.852,652.527,632.169Z" transform="translate(-578 -572)"/>
</svg>
