<svg id="_08_virology" data-name="08_virology" xmlns="http://www.w3.org/2000/svg" xmlns:xlink="http://www.w3.org/1999/xlink" width="124" height="124" viewBox="0 0 124 124">
  <defs>
    <style>
      .cls-1 {
        fill: url(#linear-gradient);
      }

      .cls-2 {
        fill: #fff;
        fill-rule: evenodd;
      }
    </style>
    <linearGradient id="linear-gradient" x1="62" x2="62" y2="124" gradientUnits="userSpaceOnUse">
      <stop offset="0" stop-color="#ff595f"/>
      <stop offset="1" stop-color="#ef2e60"/>
    </linearGradient>
  </defs>
  <circle id="_01_anesthesia" data-name="01_anesthesia" class="cls-1" cx="62" cy="62" r="62"/>
  <path class="cls-2" d="M889.28,633.926a7.551,7.551,0,0,0,1.428-.02,2.333,2.333,0,0,0,1.17-.534,2.333,2.333,0,0,1,3.449,0,2.448,2.448,0,0,1-.111,3.472,2.407,2.407,0,0,1-3.315-.173,2.217,2.217,0,0,0-1.26-.584,26.258,26.258,0,0,0-2.862-.026,2.6,2.6,0,0,0-2.7,2.265c-0.736,3.632-.589,3.916,2.821,5.275,0.955,0.381,1.826.847,2.985,0.326,1.024-.46,2.379.554,2.638,1.682a2.423,2.423,0,0,1-1.6,2.935,2.3,2.3,0,0,1-2.879-1.479,1.582,1.582,0,0,0-1.177-1.217c-0.831-.305-1.637-0.679-2.469-0.978a2.358,2.358,0,0,0-2.946.961c-0.464.676-.923,1.357-1.36,2.05a2.356,2.356,0,0,0,.277,3.1c0.742,0.8,1.511,1.585,2.32,2.319a1.546,1.546,0,0,0,.976.314,2.382,2.382,0,1,1-2.173,2.194,1.2,1.2,0,0,0-.023-0.674q-1.636-1.614-3.346-3.152a1.322,1.322,0,0,0-.778-0.218c-1.438-.063-2.33,1.031-3.393,1.716-1.114.718-1.233,1.889-.561,3.478,0.253,0.6.513,1.194,0.738,1.8a2.292,2.292,0,0,0,1.5,1.606,2.249,2.249,0,0,1,1.151,3.016,2.332,2.332,0,0,1-3.037,1.309,2.2,2.2,0,0,1-1.376-2.9,2.305,2.305,0,0,0-.146-2.192c-0.361-.774-0.648-1.581-1.006-2.356a2.4,2.4,0,0,0-2.836-1.454q-1.155.219-2.3,0.458a2.4,2.4,0,0,0-2.032,2.36c-0.049,1.1-.058,2.195,0,3.289a1.6,1.6,0,0,0,.488.916,2.466,2.466,0,0,1,.162,3.493,2.39,2.39,0,1,1-3.176-3.557,1.079,1.079,0,0,0,.427-0.516,17.861,17.861,0,0,0-.132-4.19c-0.537-2.207-2.677-1.882-4.3-2.2-1.094-.213-1.945.509-2.466,1.75-0.371.883-.758,1.763-1.052,2.672a2.118,2.118,0,0,0,.01,1.229,2.413,2.413,0,0,1-1.368,3.21,2.364,2.364,0,0,1-3.066-1.445,2.466,2.466,0,0,1,1.61-3.113,1.793,1.793,0,0,0,.877-0.811c0.432-.889.778-1.823,1.12-2.753a2.379,2.379,0,0,0-.9-2.982c-0.69-.5-1.4-0.974-2.126-1.424a2.312,2.312,0,0,0-3.008.271c-0.828.764-1.627,1.567-2.378,2.407a1.678,1.678,0,0,0-.291,1,2.3,2.3,0,0,1-2.443,2.428,2.326,2.326,0,0,1-2.284-2.4,2.418,2.418,0,0,1,2.571-2.356,1.833,1.833,0,0,0,1.122-.4,29.365,29.365,0,0,0,2.109-2.1,2.437,2.437,0,0,0,.268-3.275c-0.282-.428-0.581-0.845-0.862-1.274a2.529,2.529,0,0,0-3.578-1.13c-0.534.223-1.053,0.488-1.6,0.687a2.4,2.4,0,0,0-1.786,1.686,2.2,2.2,0,0,1-3,1.128,2.346,2.346,0,0,1-1.314-2.967,2.259,2.259,0,0,1,2.862-1.48,2.206,2.206,0,0,0,2.011-.127c0.691-.362,1.444-0.6,2.16-0.92A2.507,2.507,0,0,0,843.3,640.3c-0.13-.67-0.271-1.339-0.388-2.012a2.327,2.327,0,0,0-2.224-2.167,30.727,30.727,0,0,0-3.778.011,1.685,1.685,0,0,0-.807.541,2.274,2.274,0,0,1-2.985.377A2.381,2.381,0,1,1,836,633.295a2.116,2.116,0,0,0,1.722.634c0.851-.034,1.706.024,2.557-0.019a2.937,2.937,0,0,0,1.376-.291c1.593-1.014,1.436-2.8,1.6-4.335a2.268,2.268,0,0,0-1.838-2.306c-0.547-.184-1.078-0.42-1.607-0.655a2.847,2.847,0,0,0-2.667-.231,2.192,2.192,0,0,1-2.845-1.487,2.377,2.377,0,0,1,1.434-3.008,2.217,2.217,0,0,1,2.94,1.292A1.849,1.849,0,0,0,840,624.122c0.831,0.3,1.637.675,2.462,0.994a2.381,2.381,0,0,0,3.054-.917c0.494-.7.966-1.411,1.41-2.141a2.347,2.347,0,0,0-.269-2.94c-0.758-.834-1.552-1.641-2.387-2.4a1.531,1.531,0,0,0-.982-0.245,2.4,2.4,0,0,1-2.552-2.369,2.37,2.37,0,1,1,4.738.068,2.008,2.008,0,0,0,.439,1.148c0.621,0.726,1.321,1.384,2.008,2.052a2.433,2.433,0,0,0,3.5.28c0.2-.135.389-0.278,0.587-0.413,2.284-1.552,2.462-2.183,1.343-4.767-0.2-.47-0.416-0.938-0.594-1.419a1.944,1.944,0,0,0-1.239-1.333,2.277,2.277,0,0,1-1.183-3.085,2.38,2.38,0,0,1,3.086-1.241,2.3,2.3,0,0,1,1.259,3.065,1.932,1.932,0,0,0,.041,1.894c0.385,0.8.676,1.646,1.06,2.448a2.385,2.385,0,0,0,2.854,1.411c0.769-.147,1.539-0.289,2.3-0.454a2.5,2.5,0,0,0,2.029-2.492c0.021-.754-0.006-1.509.009-2.263a2.262,2.262,0,0,0-.739-2.067,2.321,2.321,0,0,1,.127-3.318,2.4,2.4,0,0,1,3.326.113,2.289,2.289,0,0,1-.06,3.309,1.8,1.8,0,0,0-.627,1.608c0.033,0.753,0,1.508.011,2.262a4.035,4.035,0,0,0,.065.922c0.559,2.214,2.551,1.956,4.128,2.333a2.277,2.277,0,0,0,2.574-1.415c0.442-.962.845-1.945,1.2-2.943a1.453,1.453,0,0,0-.127-0.928,2.428,2.428,0,0,1,1.185-3.285,2.4,2.4,0,0,1,3.146,1.294,2.471,2.471,0,0,1-1.443,3.191,2.066,2.066,0,0,0-.928.9,21.552,21.552,0,0,0-1.006,2.468,2.427,2.427,0,0,0,1,3.041c0.647,0.442,1.3.88,1.957,1.3a2.3,2.3,0,0,0,3.084-.249c0.826-.767,1.625-1.568,2.381-2.4a1.613,1.613,0,0,0,.342-0.983,2.338,2.338,0,0,1,2.309-2.581,2.383,2.383,0,1,1-.123,4.76,1.985,1.985,0,0,0-1.14.455c-0.744.652-1.423,1.38-2.11,2.095a2.429,2.429,0,0,0-.294,3.423c0.306,0.453.613,0.905,0.915,1.36a2.445,2.445,0,0,0,3.349,1.028c0.916-.372,1.837-0.738,2.718-1.182a1.674,1.674,0,0,0,.749-0.824,2.39,2.39,0,1,1,1.225,2.78,1.093,1.093,0,0,0-.641-0.174,36.539,36.539,0,0,0-3.986,1.825,2.11,2.11,0,0,0-.891,2.438c0.162,0.734.309,1.472,0.452,2.211a2.355,2.355,0,0,0,2.545,2.147c0.546,0.013,1.091,0,1.637,0v0.006Zm-29.935-.149a3.664,3.664,0,1,0-7.322.18A3.662,3.662,0,1,0,859.345,633.777Zm11.208,8.5a3.311,3.311,0,0,0-3.113-3.289A3.234,3.234,0,1,0,870.553,642.277Zm1.672-13.6a2.076,2.076,0,0,0-2.153-2.1,2.16,2.16,0,0,0-2.084,2.1,2.211,2.211,0,0,0,2.13,2.175A2.156,2.156,0,0,0,872.225,628.676Z" transform="translate(-802 -572)"/>
</svg>
