<svg id="_09_cosmetics" data-name="09_cosmetics" xmlns="http://www.w3.org/2000/svg" xmlns:xlink="http://www.w3.org/1999/xlink" width="124" height="124" viewBox="0 0 124 124">
  <defs>
    <style>
      .cls-1 {
        fill: url(#linear-gradient);
      }

      .cls-2 {
        fill: #fff;
        fill-rule: evenodd;
      }
    </style>
    <linearGradient id="linear-gradient" x1="62" y1="124" x2="62" gradientUnits="userSpaceOnUse">
      <stop offset="0" stop-color="#eb6a61"/>
      <stop offset="1" stop-color="#ffc875"/>
    </linearGradient>
  </defs>
  <circle id="_01_anesthesia" data-name="01_anesthesia" class="cls-1" cx="62" cy="62" r="62"/>
  <path class="cls-2" d="M1119,655.225a14.474,14.474,0,0,1-.87,2.365,6.49,6.49,0,0,1-5.94,3.386c-5.43.026-10.86,0.038-16.28,0a6.607,6.607,0,0,1-6.79-6.777q-0.015-5.818,0-11.637a6.618,6.618,0,0,1,5.63-6.741,7.434,7.434,0,0,1,1.4-.093q7.9-.009,15.82,0a6.582,6.582,0,0,1,6.46,4.025,12.551,12.551,0,0,1,.57,1.928v13.548Zm-20.19-6.851a5.26,5.26,0,1,0,5.21-5.22A5.242,5.242,0,0,0,1098.81,648.374ZM1059,607.054a8.543,8.543,0,0,1,.62-1.088,2.632,2.632,0,0,1,2.22-.963q10.665,0,21.32,0a2.63,2.63,0,0,1,2.76,3.2q-0.36,2.867-.67,5.743a1.616,1.616,0,0,1-.6,1.177q-11.07,9.066-22.1,18.165c-0.13.109-.27,0.212-0.49,0.383-0.12-1.021-.24-1.964-0.35-2.908l-1.62-13.784c-0.33-2.8-.65-5.591-0.98-8.386a4.4,4.4,0,0,0-.11-0.5v-1.043Zm25.56,12.59c-0.14,1.285-.28,2.463-0.41,3.641q-0.69,5.8-1.36,11.6-0.735,6.261-1.48,12.521l-0.15,1.321a2.529,2.529,0,0,1-2.48,2.323q-6.18.038-12.36,0a2.584,2.584,0,0,1-2.52-2.361c-0.39-3.506-.82-7.008-1.2-10.514a0.871,0.871,0,0,1,.24-0.678q10.7-8.83,21.41-17.631C1084.32,619.812,1084.4,619.764,1084.56,619.644ZM1098.37,634a5.348,5.348,0,0,1-.04-0.534c0-1.638-.01-3.276,0-4.914a2.579,2.579,0,0,1,2.83-2.806c1.94-.015,3.87-0.015,5.8,0a2.575,2.575,0,0,1,2.83,2.807c0.01,1.638,0,3.276,0,4.915,0,0.168-.02.336-0.03,0.532h-11.39Zm-30.46,18.8h9.19v2.548c-0.01.693,0.02,1.388-.03,2.079a1.923,1.923,0,0,1-1.91,1.834q-2.685.054-5.37,0a1.857,1.857,0,0,1-1.86-1.685C1067.86,656,1067.91,654.424,1067.91,652.8Z" transform="translate(-1026 -572)"/>
</svg>
