<svg id="_10_ayurvedic" data-name="10_ayurvedic" xmlns="http://www.w3.org/2000/svg" xmlns:xlink="http://www.w3.org/1999/xlink" width="124" height="124" viewBox="0 0 124 124">
  <defs>
    <style>
      .cls-1 {
        fill: url(#linear-gradient);
      }

      .cls-2 {
        fill: #fff;
        fill-rule: evenodd;
      }
    </style>
    <linearGradient id="linear-gradient" x1="62" x2="62" y2="124" gradientUnits="userSpaceOnUse">
      <stop offset="0" stop-color="#d879ef"/>
      <stop offset="1" stop-color="#a34eb7"/>
    </linearGradient>
  </defs>
  <circle id="_01_anesthesia" data-name="01_anesthesia" class="cls-1" cx="62" cy="62" r="62"/>
  <path class="cls-2" d="M1282.49,640.679h58.31c-0.45,2.185-.72,4.3-1.34,6.291A23.7,23.7,0,0,1,1318.2,663.8a85.857,85.857,0,0,1-16.03-.376C1291.34,661.915,1282.56,651.505,1282.49,640.679Zm29.02-2.243q-14.175,0-28.37-.006a2.883,2.883,0,0,1-3.1-2.434,2.831,2.831,0,0,1,1.79-3.155,5.989,5.989,0,0,1,1.86-.214q19.185-.016,38.36-0.008,8.655,0,17.29.011a6.39,6.39,0,0,1,1.74.158,2.9,2.9,0,0,1-1.07,5.638c-4.77.025-9.54,0.011-14.32,0.011Q1318.61,638.439,1311.51,638.436Zm11.79-21.146c1.09-2.157,2.16-4.283,3.27-6.488,2.17,0.906,4.23,1.769,6.42,2.688-0.38,1.176-.74,2.282-1.1,3.386-1.36,4.086-2.75,8.159-4.04,12.263a1.469,1.469,0,0,1-1.72,1.208c-3.04-.063-6.09-0.023-9.24-0.023a13.12,13.12,0,0,1,5.17-7.1c1.01-.676,2.03-1.342,3.06-1.987,1.34-.838,1.45-1.739.21-2.739A17.018,17.018,0,0,0,1323.3,617.29Zm-0.27,2.593c-0.58.4-1.17,0.8-1.75,1.2a16.578,16.578,0,0,0-6.26,7.312c-0.61,1.555-1.52,2.209-3.15,1.943a7.21,7.21,0,0,1-1.81-.279c0.44-.337.89-0.676,1.33-1.009,0.62-.457,1.2-0.972.62-1.788-0.57-.8-1.22-0.48-1.86-0.009-1.24.907-2.49,1.791-3.81,2.742a3.941,3.941,0,0,1-.63-3.973,7.2,7.2,0,0,1,3.61-4.728c4.32-2.217,8.93-2.481,13.62-1.784Zm-19.63,9.975c-1.18-.821-2.43-1.684-3.66-2.56-0.67-.475-1.38-0.9-1.97.012-0.53.828,0.09,1.333,0.71,1.774a4.684,4.684,0,0,1,1.27,1.221c-1.18,0-2.35.041-3.52-.03a1.135,1.135,0,0,1-.75-0.655,19.883,19.883,0,0,0-9.06-9.872c0.87-.2,1.39-0.363,1.92-0.427a22.036,22.036,0,0,1,9.86.983,13.823,13.823,0,0,1,4.08,2.5,3.2,3.2,0,0,1,1.18,3.61A12.63,12.63,0,0,0,1303.4,629.858Zm34.1-20.9c-0.2,1.855-1.76,3.155-3.33,2.58-2.36-.865-4.67-1.854-6.96-2.889a2.44,2.44,0,0,1,1.83-4.5c2.35,0.9,4.68,1.848,6.94,2.949A6.1,6.1,0,0,1,1337.5,608.962Z" transform="translate(-1250 -572)"/>
</svg>
