<svg id="_11_self_healthcare" data-name="11_self_healthcare" xmlns="http://www.w3.org/2000/svg" xmlns:xlink="http://www.w3.org/1999/xlink" width="124" height="124" viewBox="0 0 124 124">
  <defs>
    <style>
      .cls-1 {
        fill: url(#linear-gradient);
      }

      .cls-2 {
        fill: #fff;
        fill-rule: evenodd;
      }
    </style>
    <linearGradient id="linear-gradient" x1="62" y1="124" x2="62" gradientUnits="userSpaceOnUse">
      <stop offset="0" stop-color="#03a9d5"/>
      <stop offset="1" stop-color="#47ccd7"/>
    </linearGradient>
  </defs>
  <circle id="_01_anesthesia" data-name="01_anesthesia" class="cls-1" cx="62" cy="62" r="62"/>
  <path class="cls-2" d="M400.048,856.818V814.859h3.892c0-1.4-.006-2.65,0-3.9,0.018-3.135,1.568-4.854,4.716-4.907,5.115-.084,10.232-0.071,15.348-0.007,2.429,0.031,3.883,1.563,4,4.036,0.069,1.5.013,3,.013,4.634l3.9,0.188v41.918H400.048Zm26.872-23.339c-2.22,0-4.3-.061-6.363.023-1.247.051-1.671-.36-1.62-1.583,0.087-2.062.024-4.129,0.024-6.231H413c0,2.163-.053,4.24.021,6.311,0.04,1.135-.34,1.544-1.521,1.5-2.118-.076-4.242-0.021-6.43-0.021v5.861h7.962v7.749h5.93c0-2.162.054-4.238-.021-6.309-0.042-1.142.352-1.539,1.525-1.5,2.119,0.075,4.242.021,6.455,0.021v-5.825Zm-18.636-18.772H423.8v-4.789h-11.72c-4.589,0-4.59,0-4,4.561A0.932,0.932,0,0,0,408.284,814.707Zm-12.366.134V856.88c-2.281,0-4.525.157-6.735-.048A3.555,3.555,0,0,1,386,853.184q-0.048-17.264.007-34.527a3.808,3.808,0,0,1,3.7-3.787C391.7,814.738,393.716,814.841,395.918,814.841Zm40.141,42.125V814.907c2.24,0,4.432-.17,6.584.047,2.173,0.219,3.344,1.947,3.347,4.435q0.016,13.948,0,27.9c0,1.86.029,3.72-.01,5.58a3.912,3.912,0,0,1-4.121,4.087C439.977,857.01,438.088,856.966,436.059,856.966Z" transform="translate(-354 -770)"/>
</svg>
