<svg id="_12_consumer_otc" data-name="12_consumer_otc" xmlns="http://www.w3.org/2000/svg" xmlns:xlink="http://www.w3.org/1999/xlink" width="124" height="124" viewBox="0 0 124 124">
  <defs>
    <style>
      .cls-1 {
        fill: url(#linear-gradient);
      }

      .cls-2 {
        fill: #fff;
        fill-rule: evenodd;
      }
    </style>
    <linearGradient id="linear-gradient" x1="62" x2="62" y2="124" gradientUnits="userSpaceOnUse">
      <stop offset="0" stop-color="#add100"/>
      <stop offset="1" stop-color="#95b10c"/>
    </linearGradient>
  </defs>
  <circle id="_01_anesthesia" data-name="01_anesthesia" class="cls-1" cx="62" cy="62" r="62"/>
  <path class="cls-2" d="M665.476,847.38a7.076,7.076,0,0,1-5.059,4.66,24.171,24.171,0,0,1-6.522.889,0.642,0.642,0,0,1-.146-0.038c0.146-.458.29-0.909,0.435-1.361a5.21,5.21,0,0,0-5.093-6.848c-4.251-.016-8.5,0-12.751,0h-0.551a13.987,13.987,0,0,0-.694-1.7,5.149,5.149,0,0,0-4.616-2.719,34.126,34.126,0,0,0-4.159.067,5.147,5.147,0,0,0-.925,10.057,0.737,0.737,0,0,1,.648.722c0.055,0.6.2,1.183,0.312,1.848-0.777-.043-1.516-0.07-2.252-0.126a19.341,19.341,0,0,1-4.955-.929,7.044,7.044,0,0,1-4.993-6.048,16.8,16.8,0,0,1,14.163-18.634c0.406-.063.814-0.113,1.217-0.168a13.567,13.567,0,0,0,2.077,4.569c1.922,3,3.93,5.939,5.9,8.9,0.037,0.055.085,0.1,0.185,0.225,0.047-.577.09-1.073,0.126-1.57,0.119-1.633.229-3.265,0.355-4.9a0.568,0.568,0,0,0-.3-0.61,3.8,3.8,0,0,1-1.841-2.976,10.416,10.416,0,0,0,7.915,0,7.368,7.368,0,0,1-.141.78,4.061,4.061,0,0,1-1.754,2.256,0.563,0.563,0,0,0-.24.415c0.132,2.094.286,4.186,0.437,6.279a1.675,1.675,0,0,0,.067.265,1.636,1.636,0,0,0,.14-0.147,102.141,102.141,0,0,0,6.759-10.4,8.763,8.763,0,0,0,1.208-3.124c0.881,0.161,1.754.278,2.6,0.483a16.885,16.885,0,0,1,12.826,14.238A13.03,13.03,0,0,1,665.476,847.38Zm-13.888-28.925a17.444,17.444,0,0,1-4.935,7.694,10.152,10.152,0,0,1-5.742,2.6,9.437,9.437,0,0,1-6.329-1.65,15.424,15.424,0,0,1-5.39-6.658,23.3,23.3,0,0,1-2-7.771c-0.068-.765-0.138-1.531-0.212-2.346,0.282-5.413,2.609-9.663,7.732-12.119a12.643,12.643,0,0,1,15.742,4.292,13.7,13.7,0,0,1,2.386,9.811A28.554,28.554,0,0,1,651.588,818.455ZM625.565,845.8a1.43,1.43,0,0,1,.788-1.651,1.944,1.944,0,0,1,.745-0.151c1.073-.016,2.147-0.013,3.22,0a1.484,1.484,0,0,1,1.624,1.347c0.165,0.88.334,1.76,0.461,2.646a0.413,0.413,0,0,0,.513.422c3.206-.013,6.412-0.008,9.617-0.008h6.312a1.531,1.531,0,0,1,1.641,2.214q-1.545,4.71-3.087,9.42a1.57,1.57,0,0,1-1.764,1.266q-6.225,0-12.451,0a1.577,1.577,0,0,1-1.772-1.494q-1.083-6.264-2.177-12.526c-0.017-.1-0.046-0.191-0.084-0.348-0.719,0-1.418.013-2.117,0A1.487,1.487,0,0,1,625.565,845.8Zm9.2,16.618a2.332,2.332,0,0,1,2.287,2.312A2.345,2.345,0,1,1,634.761,862.413Zm9.391,0a2.294,2.294,0,1,1-2.34,2.306A2.342,2.342,0,0,1,644.152,862.411Z" transform="translate(-578 -770)"/>
</svg>
