<svg id="_13_urology_drugs" data-name="13_urology_drugs" xmlns="http://www.w3.org/2000/svg" xmlns:xlink="http://www.w3.org/1999/xlink" width="124" height="124" viewBox="0 0 124 124">
  <defs>
    <style>
      .cls-1 {
        fill: url(#linear-gradient);
      }

      .cls-2 {
        fill: #fff;
        fill-rule: evenodd;
      }
    </style>
    <linearGradient id="linear-gradient" x1="62" x2="62" y2="124" gradientUnits="userSpaceOnUse">
      <stop offset="0" stop-color="#ff595f"/>
      <stop offset="1" stop-color="#ef2e60"/>
    </linearGradient>
  </defs>
  <circle id="_01_anesthesia" data-name="01_anesthesia" class="cls-1" cx="62" cy="62" r="62"/>
  <path class="cls-2" d="M864.758,803h3.515v19.4c1.14-.456,2.227-0.92,3.337-1.317a0.682,0.682,0,0,0,.552-0.555,7.819,7.819,0,0,1,1.561-3.239,0.887,0.887,0,0,0,.152-1.039,8.185,8.185,0,0,1,11.814-10,14.99,14.99,0,0,1,6.7,8.9c0.279,0.967.409,1.976,0.608,2.966v8.906a1.9,1.9,0,0,0-.1.329,15.367,15.367,0,0,1-6,10.725,8.241,8.241,0,0,1-13.008-9.3,0.771,0.771,0,0,0,.058-0.581,9.786,9.786,0,0,1-1.8-3.631,5.272,5.272,0,0,0-3.741,4.028,16.891,16.891,0,0,0-.134,3.09c-0.016,2.419-.006,4.838-0.006,7.187,1.018,0.438,2.023.776,2.937,1.281a8.09,8.09,0,0,1,2.787,11.5,8.981,8.981,0,0,1-5.109,3.5,0.715,0.715,0,0,0-.628.829c0.031,2.343.013,4.685,0.013,7.028H857.727c0-2.343-.017-4.685.013-7.027a0.716,0.716,0,0,0-.627-0.832,9.521,9.521,0,0,1-4.694-2.932,8.092,8.092,0,0,1,2.779-12.286c0.8-.392,1.656-0.674,2.511-1.016,0.005-.1.017-0.237,0.017-0.373,0-2.947.008-5.895,0-8.843a5.33,5.33,0,0,0-3.511-4.989A0.561,0.561,0,0,0,854,824.66c-0.6,1.12-1.123,2.182-1.737,3.187a1.009,1.009,0,0,0-.143,1.044,8.155,8.155,0,0,1-2.008,8.921,8.037,8.037,0,0,1-9.181,1.4,14.62,14.62,0,0,1-7.327-9.221c-0.285-.965-0.41-1.977-0.608-2.968v-8.906a2.028,2.028,0,0,0,.1-0.333,15.366,15.366,0,0,1,5.864-10.614,8.251,8.251,0,0,1,13.149,9.2,0.874,0.874,0,0,0,.046.718,9.361,9.361,0,0,1,1.72,3.552,0.6,0.6,0,0,0,.293.378c1.181,0.465,2.371.906,3.559,1.353V803h3.515V838.4h3.516V803Z" transform="translate(-802 -770)"/>
</svg>
