<svg id="_14_asthma_products" data-name="14_asthma_products" xmlns="http://www.w3.org/2000/svg" xmlns:xlink="http://www.w3.org/1999/xlink" width="124" height="124" viewBox="0 0 124 124">
  <defs>
    <style>
      .cls-1 {
        fill: url(#linear-gradient);
      }

      .cls-2 {
        fill: #fff;
        fill-rule: evenodd;
      }
    </style>
    <linearGradient id="linear-gradient" x1="62" y1="124" x2="62" gradientUnits="userSpaceOnUse">
      <stop offset="0" stop-color="#eb6a61"/>
      <stop offset="1" stop-color="#ffc875"/>
    </linearGradient>
  </defs>
  <circle id="_01_anesthesia" data-name="01_anesthesia" class="cls-1" cx="62" cy="62" r="62"/>
  <path class="cls-2" d="M1104.57,806.582l13.47,8.8,1.9-4.949a1.163,1.163,0,0,0-.81-1.467s-9.22-4.308-13.84-3.942A1.141,1.141,0,0,0,1104.57,806.582Zm14.56,11.091-16.28-10.633s-0.45-.367-0.63,0l-10.13,34.282-0.18.825a1,1,0,0,0,.54.549,12.538,12.538,0,0,1,2.26,12.925l-0.18.641a0.684,0.684,0,0,0,.54.917s2.26,1.283,7.69.642c0,0,4.34-.734,6.87-7.7l9.23-30.89A3.713,3.713,0,0,0,1119.13,817.673Zm-27.76,25.573a12.6,12.6,0,0,1,1.71,13.291,0.687,0.687,0,0,1-.63,0l-16.91-5.591s-0.54-.092-0.54-1.375l0.27-5.5a3.517,3.517,0,0,1,.81-1.008l2.62-3.116s0-.184.55,0l11.66,3.208Zm-16.55-3.849a0.825,0.825,0,1,1-.82.825A0.822,0.822,0,0,1,1074.82,839.4Zm-1.9,4.033a0.825,0.825,0,0,1,0,1.65A0.825,0.825,0,0,1,1072.92,843.43Zm-0.28,4.766a0.825,0.825,0,1,1-.81.825A0.825,0.825,0,0,1,1072.64,848.2Zm-1.62-12.1a1.192,1.192,0,1,1-1.18,1.191A1.178,1.178,0,0,1,1071.02,836.1Zm-1.81,4.95a1.192,1.192,0,1,1-1.18,1.191A1.178,1.178,0,0,1,1069.21,841.047Zm-0.82,5.316a1.192,1.192,0,1,1-1.17,1.192A1.187,1.187,0,0,1,1068.39,846.363Zm-0.99-14.391a1.559,1.559,0,1,1-1.54,1.558A1.55,1.55,0,0,1,1067.4,831.972Zm-2.71,5.866a1.559,1.559,0,1,1-1.54,1.559A1.542,1.542,0,0,1,1064.69,837.838Zm-1.09,7.608a1.559,1.559,0,1,1-1.54,1.559A1.55,1.55,0,0,1,1063.6,845.446Zm-0.09-18.882a2.017,2.017,0,1,1-1.99,2.017A2,2,0,0,1,1063.51,826.564Zm-4.43,8.158a2.017,2.017,0,1,1-1.99,2.016A2,2,0,0,1,1059.08,834.722Zm-1.09,9.624a2.017,2.017,0,1,1-1.99,2.017A2,2,0,0,1,1057.99,844.346Z" transform="translate(-1026 -770)"/>
</svg>
