<svg id="_15_diabetic_care" data-name="15_diabetic_care" xmlns="http://www.w3.org/2000/svg" xmlns:xlink="http://www.w3.org/1999/xlink" width="124" height="124" viewBox="0 0 124 124">
  <defs>
    <style>
      .cls-1 {
        fill: url(#linear-gradient);
      }

      .cls-2 {
        fill: #fff;
        fill-rule: evenodd;
      }
    </style>
    <linearGradient id="linear-gradient" x1="62" x2="62" y2="124" gradientUnits="userSpaceOnUse">
      <stop offset="0" stop-color="#d879ef"/>
      <stop offset="1" stop-color="#a34eb7"/>
    </linearGradient>
  </defs>
  <circle id="_01_anesthesia" data-name="01_anesthesia" class="cls-1" cx="62" cy="62" r="62"/>
  <path class="cls-2" d="M1305.18,862V849.508c-1.23,0-2.4.011-3.57,0a27,27,0,0,1-3.58-.105,6.879,6.879,0,0,1-6.01-6.984q-0.015-13.166-.01-26.331c0-2.145-.03-4.291.03-6.433a6.834,6.834,0,0,1,6.5-6.584c3.9-.118,7.8-0.054,11.71-0.059,4.85,0,9.71-.018,14.56.006a6.982,6.982,0,0,1,7.08,5.78,8.379,8.379,0,0,1,.11,1.584v31.97a6.954,6.954,0,0,1-5.36,6.94,8.109,8.109,0,0,1-1.78.209c-1.77.027-3.55,0.01-5.32,0.01h-0.71V862h-13.65Zm19.95-27.739V810.1h-26.25v24.165h26.25Zm-8.39,25.707V852.09h-9.47v7.878h9.47Zm-9.49-9.989h9.49v-5.12h-9.49v5.12Zm17.89-12.418h-5.3v1.956h5.3v-1.956Zm-26.26-.006v1.955h5.29v-1.955h-5.29Zm15.78,0.015h-5.3v1.94h5.3v-1.94Zm-2.68-24.3c0.78,0.742,1.5,1.389,2.18,2.081a18.933,18.933,0,0,1,4.31,6.141,6.819,6.819,0,0,1-4.85,9.177,6.649,6.649,0,0,1-6.89-2.232,6.493,6.493,0,0,1-1.17-7,17.294,17.294,0,0,1,3.6-5.359C1310.05,815.134,1311,814.25,1311.98,813.275Zm0.05,41.145a1.614,1.614,0,0,1,1.59,1.617A1.61,1.61,0,1,1,1312.03,854.42Z" transform="translate(-1250 -770)"/>
</svg>
