<?xml version="1.0" encoding="utf-8"?>
<!-- Generator: Adobe Illustrator 23.1.0, SVG Export Plug-In . SVG Version: 6.00 Build 0)  -->
<svg version="1.1" id="Layer_1" xmlns="http://www.w3.org/2000/svg" xmlns:xlink="http://www.w3.org/1999/xlink" x="0px" y="0px"
	 viewBox="0 0 310 48" style="enable-background:new 0 0 310 48;" xml:space="preserve">
<style type="text/css">
	.st0{fill-rule:evenodd;clip-rule:evenodd;fill:#2157BA;}
	.st1{fill-rule:evenodd;clip-rule:evenodd;fill:#A04473;}
	.st2{fill:#A04473;}
</style>
<path id="sankar_pharma_logo" class="st0" d="M23.3,10.5h-1.1c-3.2,0-6.5,0-9.7,0c-1,0-2.1,0-2.5,1.1c-0.4,1.1,0.4,1.8,1.1,2.5
	c0.7,0.6,1.5,1.2,2.3,1.6c1.8,1.1,3.7,2.2,5.5,3.2c0.5-0.7,0.9-1.3,1.3-1.9c2.7-3.1,6.1-3.9,9.9-3.2c3.9,0.8,6.3,3.3,7.6,7
	c1.6,5-0.1,10.3-4,13c-1.6,1-3.3,1.6-5.2,1.7c-0.4,0.1-0.8,0-0.9-0.4c-0.1-0.1-0.1-0.3,0-0.4c0-1.9,0-3.9,0-5.8
	c-0.1-0.4,0.2-0.8,0.6-0.9c0.1,0,0.1,0,0.2,0c1.6-0.2,2.8-1.6,2.7-3.3c0.1-1.5-0.9-2.9-2.4-3.4c-1.4-0.3-2.9,0.6-3.2,2
	c0,0.1-0.1,0.3-0.1,0.4c-0.1,0.7-0.2,1.4-0.2,2.2c0,6.1,0,12.2,0,18.4c0,0.8-0.2,1.2-1.1,1.1c-2-0.1-4,0-5.9,0
	c-0.4,0.1-0.8-0.1-0.9-0.5c0-0.1,0-0.3,0-0.4c0-2.4,0-4.8,0-7.3c-1.2,0.2-2.4,0.4-3.5,0.5c-1.6,0.1-3.2,0.2-4.8,0.2
	c-2.8,0-5.6,0-8.4,0c-0.7,0-0.8-0.1-0.8-0.9c0.1-1.7,0.1-3.5,0.1-5.2c0-0.9,0.1-1.7,0.2-2.8c0.3,0,0.7,0,1,0c3.6,0,7.3,0.1,10.9,0
	c1,0,1.9-0.2,2.8-0.6c0.7-0.1,1.1-0.8,1-1.4c-0.1-0.3-0.2-0.6-0.5-0.8c-0.6-0.5-1.2-0.9-1.9-1.3c-3.2-1.6-6.4-3.2-8.9-5.9
	C2.1,16.7,1,13,1.7,9.5C2.3,6.2,5,3.7,8.8,3c1.2-0.2,2.4-0.4,3.6-0.4c3.3-0.1,6.7,0,10,0c0.3,0,0.5,0,0.8,0L23.3,10.5L23.3,10.5z
	 M267.6,13.2c-0.1,0.3-0.2,0.5-0.2,0.8c-0.1,2.1-0.2,4.2-0.2,6.3c0,0.5,0.2,1,0.6,1.4c0.5,0.5,0.7,1.3,0.7,2
	c0.1,0.8-0.5,1.5-1.3,1.5c-0.1,0-0.2,0-0.2,0c-0.8,0-1.7,0-2.5,0c-1.7,0-2.5-1.4-1.6-2.9c0.2-0.3,0.4-0.4,0.6-0.7
	c0.4-0.5,0.6-1.1,0.8-1.8c0.2-4.6,0.3-9.2,0.4-13.8c0-0.6-0.3-1.2-0.7-1.7c-0.7-0.7-0.9-1.7-0.7-2.6c0-0.6,0.6-1.1,1.2-1
	c0,0,0,0,0,0c1.7,0,3.5-0.1,5.2-0.1c0.6,0,1.1,0.5,1.2,1.1c1.2,3.3,2.4,6.7,3.7,10c0.2,0.4,0.3,0.8,0.6,1.5c0.3-0.5,0.4-0.8,0.6-1.1
	c1.2-3.2,2.5-6.5,3.7-9.7c0.6-1.6,0.7-1.7,2.4-1.6c1.3,0,2.5,0,3.8,0c0.7-0.1,1.4,0.2,1.7,0.7c0.4,0.9,0.2,1.9-0.4,2.6
	c-0.6,0.5-1,1.3-0.8,2.2c0.2,3.8,0.3,7.6,0.4,11.3c0,0.9,0.1,1.8,0.2,2.6c0.1,0.5,0.4,0.9,0.8,1.3c0.8,0.8,1.1,1.9,0.7,3
	c-0.3,0.4-0.7,0.7-1.2,0.8c-0.9,0.1-1.8-0.1-2.7-0.1c-1.2,0-2.3,0.1-3.5,0.2c-0.7,0-1.5,0-1.8-0.8c-0.2-0.7-0.4-1.9,0-2.3
	c1.2-1.2,1-2.6,1-4.1c0-1.4-0.1-2.8-0.2-4.2c0-0.3-0.1-0.6-0.2-0.9c-0.3,0.5-0.5,0.8-0.6,1.2c-1.4,3.4-2.8,6.9-4.3,10.3
	c-0.1,0.2-0.2,0.4-0.3,0.7c-0.5,0.8-1.2,0.8-1.6,0c-0.4-0.9-0.8-1.8-1.1-2.7c-1.1-2.8-2.2-5.7-3.3-8.5c-0.1-0.3-0.3-0.6-0.4-0.9
	L267.6,13.2z M199.6,13c0-2.2,0.1-4.4,0-6.5c-0.1-0.7-0.4-1.5-0.8-2.1c-0.3-0.5-0.6-1.1-0.7-1.7c-0.1-1.6,0.5-1.9,1.7-1.8
	c2.1,0.1,4.2,0,6.3,0c0.6,0,1.3-0.1,1.6,0.7c0.4,0.8,0.3,1.8-0.2,2.5c-0.8,0.8-1.2,1.9-1,2.9c0,0.6,0,1.3,0,1.9
	c-0.1,0.6,0.3,1.2,0.9,1.3c0.1,0,0.3,0,0.4,0c0.8,0,1.7,0,2.5,0c0.5,0.1,1-0.2,1.1-0.8c0-0.1,0-0.2,0-0.2c0.1-1.9,0.3-3.7-1-5.3
	c-0.5-0.7-0.5-1.7-0.1-2.4c0.2-0.3,0.6-0.5,1-0.5c2.4,0,4.7,0,7.1,0c0.7-0.1,1.2,0.4,1.3,1.1c0,0.1,0,0.1,0,0.2
	c0.2,0.9-0.2,1.9-0.9,2.5c-0.3,0.3-0.5,0.8-0.6,1.2c0,4.8,0,9.6,0,14.4c0,0.5,0.2,1,0.6,1.3c1.1,0.8,0.9,1.8,0.7,2.9
	c-0.2,0.4-0.6,0.7-1.1,0.8c-2.4,0.1-4.8,0.1-7.2,0c-1.3,0-1.4-1.2-1.2-2.5c0-0.2,0.1-0.4,0.3-0.6c1.7-2,1-4.4,0.9-6.7
	c-0.1-0.3-0.4-0.5-0.7-0.6c-1-0.1-1.9-0.2-2.9-0.2c-0.6-0.1-1.2,0.3-1.3,0.9c0,0.1,0,0.1,0,0.2c0,1.6-0.1,3.1,0,4.7
	c0.1,0.4,0.4,0.9,0.6,1.2c0.3,0.6,0.6,1.3,0.7,2c0.1,1.1-0.4,1.5-1.5,1.5c-2.1,0-4.2,0-6.3,0c-0.7,0.2-1.4-0.1-1.7-0.7
	c-0.5-0.8-0.3-1.8,0.3-2.5c0.8-0.8,1.2-2,1.1-3.2C199.6,16.9,199.6,15,199.6,13L199.6,13z M116.8,11.3c0.2-0.2,0.3-0.3,0.5-0.5
	c1.2-1.6,2.4-3.3,3.5-4.9c0.5-0.7,0.7-1.3-0.3-1.7c-0.6-0.3-0.7-1.6-0.4-2.5c0.2-0.6,0.8-1,1.4-0.8c2,0,4.1-0.1,6.1-0.1
	c0.5,0,1.1,0.3,1.4,0.7c0.6,1.1,0.2,2.4-0.9,3c-2.2,1-3.3,3.1-4.9,4.8c-0.4,0.4-0.5,1.1-0.2,1.6c1.5,3.2,3.1,6.4,4.7,9.6
	c0.3,0.5,0.6,0.9,1,1.2c0.8,0.7,1.1,2,0.6,3c-0.2,0.3-0.5,0.5-0.9,0.6c-1.9,0.1-3.9,0-5.8,0c-1,0-1.3-0.9-1.7-1.6
	c-0.8-1.9-1.6-3.9-2.4-5.9c0-0.1-0.1-0.2-0.1-0.2c-0.3-0.4-0.5-0.7-0.8-1.1c-0.4,0.4-0.7,0.8-0.9,1.4c-0.1,1.5-0.4,3.1,1.1,4.3
	c0.6,0.7,0.7,1.7,0.3,2.5c-0.3,0.8-1,0.7-1.7,0.7c-2,0-4.1,0-6.1,0c-0.7,0.2-1.4-0.1-1.7-0.7c-0.5-0.8-0.4-1.8,0.3-2.5
	c0.8-0.9,1.2-2,1.1-3.2c0-4.1,0-8.2,0-12.3c0.1-0.9-0.3-1.7-0.9-2.4c-0.7-0.7-0.9-1.8-0.5-2.7c0.2-0.4,0.6-0.7,1.1-0.7
	c2.5-0.1,5,0,7.4,0c0.6-0.1,1.2,0.4,1.2,1c0,0,0,0,0,0.1c0.3,1-0.1,2.1-0.9,2.7c-0.3,0.2-0.4,0.5-0.5,0.8
	C116.8,7.3,116.8,9.2,116.8,11.3L116.8,11.3z M160.1,15.2c-0.1,0.4-0.2,0.7-0.2,1.1c0,1.2-0.1,2.5,0,3.7c0,0.6,0.3,1.2,0.6,1.6
	c0.7,0.7,1,1.8,0.7,2.7c-0.1,0.6-0.6,1-1.2,1c0,0,0,0-0.1,0c-0.9,0-1.7,0-2.6,0c-1.3,0-2.7,0-4,0c-0.7,0.2-1.4-0.1-1.7-0.7
	c-0.4-0.8-0.3-1.7,0.2-2.4c0.9-0.9,1.3-2.1,1.1-3.4c0-4,0-8.1,0-12.1c0.1-0.9-0.3-1.8-0.9-2.5c-0.7-0.7-0.9-1.8-0.5-2.7
	c0.2-0.4,0.6-0.6,1-0.7c1.8,0,3.5,0.1,5.3,0.1c1.7,0,3.4-0.1,5-0.1c3.4,0,5.4,1.8,5.8,5.2c0.1,1.1,0.1,2.2,0,3.3
	c-0.1,1.3-0.6,2.4-1.5,3.3c-0.4,0.3-0.5,1-0.2,1.4c0.9,1.8,1.8,3.7,2.8,5.5c0.3,0.4,0.7,0.8,1.1,1.2c0.2,0.1,0.4,0.3,0.6,0.4
	c0.3,0.9,0.2,2-0.3,2.9c-0.3,0.7-1,1.2-1.7,1.2c-1.3,0-2.7,0-4,0c-0.8-0.1-1.4-0.6-1.6-1.4c-1-2.6-2-5.2-3-7.8
	c-0.1-0.3-0.3-0.6-0.5-1L160.1,15.2z M160.4,4.7c-0.3,0.3-0.5,0.6-0.7,0.9c-0.1,1.5-0.1,3,0,4.4c-0.1,0.4,0.2,0.7,0.5,0.7
	c0.2,0,0.4,0,0.5-0.1c0.4-0.2,0.8-0.6,1.1-1c0.7-1.4,0.5-3-0.4-4.2C161.2,5.1,160.8,4.9,160.4,4.7L160.4,4.7z M250.7,15.1
	c-0.1,0.4-0.2,0.8-0.2,1.2c-0.1,1.2-0.1,2.4,0,3.6c0,0.6,0.3,1.2,0.7,1.7c0.7,0.7,1,1.8,0.7,2.8c-0.1,0.6-0.6,1-1.1,0.9c0,0,0,0,0,0
	c-1.3,0-2.6-0.1-3.9-0.1c-0.9,0-1.8,0.1-2.8,0.1c-0.7,0.2-1.4-0.1-1.8-0.8c-0.4-0.8-0.3-1.8,0.3-2.5c0.8-0.8,1.2-1.8,1.1-2.9
	c0-4.2,0-8.3,0-12.4c0.1-0.9-0.3-1.8-0.9-2.4c-0.7-0.7-0.9-1.8-0.4-2.7c0.2-0.4,0.6-0.6,1.1-0.7c1.8,0,3.5,0.1,5.3,0.1
	c1.6,0,3.3-0.1,4.9-0.2c3.4,0,5.4,1.8,5.8,5.2c0.1,1.2,0.1,2.3,0,3.5c-0.1,1.2-0.6,2.3-1.5,3.1c-0.4,0.4-0.5,1-0.2,1.4
	c0.9,1.8,1.8,3.7,2.8,5.5c0.3,0.4,0.7,0.8,1.1,1.1c0.2,0.1,0.4,0.3,0.6,0.4c0.9,1.3-0.5,4-2,4.1c-1.3,0-2.6,0-3.9,0
	c-0.8,0-1.5-0.6-1.6-1.4c-1-2.5-1.9-5-2.9-7.5c-0.2-0.4-0.4-0.8-0.5-1.2L250.7,15.1z M250.3,7.8L250.3,7.8c0,0.6,0,1.2,0,1.8
	c0,0.4,0.2,0.8,0.5,1c0.4,0.1,0.8,0,1.1-0.3c1.3-1,1.3-4.2-0.1-5.2c-0.3-0.2-0.6-0.3-1-0.2c-0.3,0.2-0.5,0.5-0.5,0.9
	C250.3,6.5,250.3,7.1,250.3,7.8L250.3,7.8z M102.3,12.4c0-0.6,0.1-0.9,0.1-1.2c0-1.7,0-3.5,0-5.2c0-0.6-0.2-1.2-0.6-1.6
	c-0.4-0.5-0.7-1.2-0.7-1.9c0-1.3,0.5-1.7,1.8-1.6c1,0,2.1,0,3.1,0c0.6-0.1,1.3,0.3,1.4,0.9c0,0.1,0,0.3,0,0.4
	c0.1,0.9-0.2,1.8-0.9,2.4c-0.4,0.4-0.6,1-0.6,1.5c-0.1,5,0,9.9-0.1,14.9c0,1.3,0,2.6-0.2,3.9c0,0.5-0.3,1-0.7,1.3
	c-0.5,0.1-1.1-0.1-1.5-0.4c-1-1-1.9-2.2-2.8-3.3c-2.2-2.7-4.3-5.4-6.5-8.1c-0.2-0.3-0.4-0.5-0.6-0.7c-0.1,0-0.1,0.1-0.2,0.2
	c0,2.1-0.1,4.2,0,6.3c0.1,0.6,0.4,1.2,0.9,1.7c0.6,0.7,0.8,1.6,0.6,2.5c-0.1,0.6-0.7,1.1-1.3,1c-1.4,0-2.7,0-4.1,0
	c-0.7,0-1.2-0.4-1.3-1.1c0,0,0-0.1,0-0.1c-0.2-0.9,0.1-1.8,0.8-2.5c0.4-0.4,0.6-1,0.7-1.6c0-4.6,0-9.2,0-13.8c0-0.6-0.3-1.2-0.7-1.7
	c-0.7-0.7-0.9-1.7-0.7-2.7c0-0.6,0.5-1,1.1-1c0,0,0,0,0,0c1-0.1,2,0,3,0c0.6,0.1,1.1,0.4,1.4,0.8c2.7,3.3,5.3,6.6,7.9,9.9
	C101.7,11.8,101.9,12,102.3,12.4L102.3,12.4z M182.6,0.8c2.8,0,5.7,0,8.5,0c1.8-0.1,3.5,0.8,4.4,2.4c1.8,3,2.1,6.7,0.7,9.9
	c-1,2.2-3.4,3.5-5.8,3.1c-0.7-0.1-1.3-0.1-2-0.2c-0.3-0.1-0.6,0.1-0.7,0.3c0,0.1,0,0.2,0,0.3c-0.1,1.2,0,2.5,0.1,3.7
	c0.2,0.6,0.6,1.1,1.1,1.4c0.9,0.5,1.3,1.5,1,2.5c-0.2,0.8-1,1.2-1.8,1.1c-1.2,0-2.5-0.2-3.7-0.2c-1.1,0-2.3,0.2-3.4,0.1
	c-0.6,0-1.2-0.3-1.7-0.7c-0.5-0.7-0.5-1.8,0.2-2.4c0.8-0.9,1.2-2.1,1.1-3.3c0-4.1,0-8.1,0-12.2c0.1-0.9-0.3-1.8-0.9-2.5
	c-0.7-0.7-0.9-1.7-0.5-2.6c0.2-0.4,0.6-0.7,1.1-0.7C181.1,0.8,181.9,0.8,182.6,0.8z M187.4,8.1L187.4,8.1c0.1,0.7,0.1,1.4,0.1,2.2
	c0,0.2,0.1,0.4,0.1,0.5c0.2,0.7,0.6,1,1.2,0.6c0.4-0.3,0.8-0.6,1-1.1c0.7-1.6,0.4-3.5-0.7-4.8c-0.1-0.2-0.3-0.3-0.5-0.4
	c-0.5-0.3-1-0.3-1.1,0.5C187.5,6.5,187.5,7.3,187.4,8.1L187.4,8.1z M81.8,25.3c-1.4,0-2.7,0-4,0c-0.6,0.1-1.1-0.3-1.1-0.9
	c-0.5-1.1,0-2.3,1-2.8c0,0,0,0,0,0c0.5-0.3,0.7-0.9,0.4-1.4c-0.2-0.4-0.5-0.6-0.9-0.7c-1.2-0.1-2.4-0.1-3.6,0
	c-0.5,0.1-0.9,0.3-1.2,0.7c-0.2,0.5,0,1.1,0.4,1.3c0,0,0,0,0.1,0c1,0.6,1.4,1.8,0.9,2.9c-0.2,0.4-0.5,0.7-1,0.7
	c-1.7,0.1-3.5,0.1-5.2,0c-0.3,0-0.6-0.2-0.8-0.4c-0.5-1-0.4-2.2,0.4-3c0.9-0.7,1.5-1.7,1.7-2.8c1.6-5.4,3.2-10.8,4.9-16.2
	c0.1-0.3,0.2-0.7,0.3-1c0.2-0.7,0.8-1.1,1.5-1c1,0,2,0.1,3,0c0.7-0.1,1.5,0.4,1.6,1.1c0,0,0,0.1,0,0.1c0.9,3.2,1.8,6.4,2.7,9.6
	c0.7,2.4,1.3,4.7,2,7.1c0.2,1.2,0.9,2.3,1.8,3.2c0.7,0.8,0.8,1.9,0.4,2.9c-0.3,0.3-0.7,0.6-1.2,0.6C84.5,25.3,83.1,25.3,81.8,25.3z
	 M75.7,9c-0.2,0.1-0.3,0.2-0.4,0.4c-0.5,1.6-1,3.3-1.4,4.9c-0.1,0.3,0,0.6,0.3,0.7c0.1,0,0.2,0.1,0.3,0c0.5,0,1.1,0,1.6,0
	c0.3,0.1,0.7-0.1,0.7-0.4c0-0.1,0-0.3,0-0.4c-0.1-0.8-0.3-1.6-0.5-2.4C76.1,10.9,75.9,10,75.7,9z M145.3,25.3c-1.3,0-2.6,0-3.9,0
	c-0.6,0.1-1.3-0.3-1.4-1c0,0,0-0.1,0-0.1c-0.3-1,0.1-2.1,1.1-2.7c0.3-0.4,0.5-0.9,0.4-1.4c-0.2-0.4-0.5-0.6-0.9-0.7
	c-1.2-0.1-2.4-0.1-3.6,0c-0.5,0.1-0.9,0.3-1.2,0.7c-0.2,0.5,0,1.1,0.5,1.3c0,0,0,0,0,0c1,0.6,1.3,1.9,0.9,2.9
	c-0.2,0.4-0.5,0.7-1,0.7c-1.7,0.1-3.5,0.1-5.2,0c-0.3,0-0.6-0.2-0.8-0.4c-0.5-1-0.4-2.2,0.4-3c0.9-0.7,1.5-1.7,1.7-2.8
	c1.6-5.4,3.2-10.8,4.9-16.2c0.1-0.4,0.2-0.8,0.4-1.1c0.2-0.6,0.8-1,1.4-0.9c1,0,2,0.1,3,0c0.8-0.1,1.5,0.3,1.7,1.1c0,0,0,0.1,0,0.1
	c0.9,3.4,1.9,6.9,2.9,10.3c0.7,2.5,1.4,5,2.2,7.5c0.3,0.7,0.7,1.4,1.3,1.9c0.7,0.8,0.9,1.9,0.5,2.9c-0.3,0.4-0.7,0.6-1.1,0.7
	C148.1,25.3,146.7,25.3,145.3,25.3z M139.2,8.9c-0.2,0.2-0.3,0.4-0.5,0.6c-0.5,1.5-0.9,3-1.3,4.6c-0.2,0.3-0.1,0.7,0.3,0.9
	c0.2,0.1,0.3,0.1,0.5,0.1c0.5,0,1,0,1.5,0c0.3,0.1,0.6-0.1,0.7-0.4c0-0.1,0-0.2,0-0.3c-0.1-0.7-0.2-1.4-0.4-2.1
	C139.7,11.2,139.5,10.1,139.2,8.9z M235.9,25.3c-1.3,0-2.6,0-3.9,0c-0.6,0.1-1.3-0.3-1.4-1c0,0,0-0.1,0-0.1c-0.3-1,0.1-2.1,1.1-2.7
	c0.3-0.4,0.5-0.9,0.4-1.4c-0.2-0.4-0.5-0.6-0.9-0.7c-1.3-0.1-2.5-0.1-3.8,0c-0.4,0.1-0.8,0.4-1.1,0.7c-0.2,0.4-0.1,1,0.3,1.2
	c0,0,0.1,0,0.1,0.1c1.3,0.7,1.2,1.8,1,2.9c-0.2,0.4-0.5,0.7-1,0.8c-1.7,0.1-3.5,0.1-5.2,0c-0.3,0-0.6-0.2-0.8-0.4
	c-0.5-1-0.4-2.2,0.4-3c0.9-0.7,1.5-1.7,1.7-2.8c1.6-5.4,3.2-10.7,4.8-16.1c0.1-0.3,0.2-0.7,0.3-1c0.2-0.7,0.9-1.2,1.6-1.1
	c1,0,1.9,0,2.9,0c0.8-0.1,1.5,0.3,1.6,1.1c0,0,0,0.1,0,0.1c1,3.6,2,7.3,3,10.9c0.6,2.3,1.3,4.6,2,6.9c0.3,0.7,0.7,1.4,1.3,1.9
	c0.7,0.8,0.9,1.9,0.5,2.9c-0.3,0.4-0.7,0.6-1.1,0.6C238.6,25.3,237.3,25.3,235.9,25.3L235.9,25.3z M229.9,9.2l-0.3,0
	c-0.2,0.3-0.3,0.6-0.5,0.9c-0.3,1.2-0.7,2.3-1,3.5c-0.4,1.3-0.2,1.5,1.1,1.5c1.9,0,1.9,0,1.5-1.8C230.5,11.8,230.1,10.5,229.9,9.2
	L229.9,9.2z M304.1,25.3c-1.3,0-2.6,0-3.9,0c-0.6,0.1-1.3-0.3-1.4-1c0,0,0-0.1,0-0.1c-0.3-1,0.1-2.1,1.1-2.7
	c0.3-0.4,0.5-0.9,0.4-1.4c-0.2-0.4-0.5-0.6-0.9-0.7c-1.3-0.1-2.5-0.1-3.8,0c-0.4,0.1-0.8,0.4-1.1,0.7c-0.2,0.4-0.1,1,0.3,1.2
	c0,0,0.1,0,0.1,0.1c1.3,0.7,1.2,1.8,1,2.9c-0.2,0.4-0.5,0.7-1,0.8c-1.7,0.1-3.5,0.1-5.2,0c-0.3,0-0.6-0.2-0.8-0.4
	c-0.5-1-0.4-2.2,0.4-3c0.9-0.7,1.5-1.7,1.7-2.8c1.6-5.4,3.2-10.7,4.8-16.1c0.1-0.3,0.2-0.7,0.3-1c0.2-0.7,0.9-1.1,1.6-1.1
	c1,0,1.9,0,2.9,0c0.8-0.1,1.5,0.4,1.6,1.1c0,0,0,0.1,0,0.1c1,3.6,2,7.3,3,10.9c0.6,2.3,1.3,4.6,2,6.8c0.3,0.7,0.7,1.4,1.3,1.9
	c0.7,0.8,0.9,1.9,0.5,2.9c-0.3,0.4-0.7,0.6-1.1,0.6C306.9,25.3,305.5,25.3,304.1,25.3L304.1,25.3z M298,9.1l-0.3,0
	c-0.2,0.3-0.3,0.7-0.5,1c-0.3,0.9-0.5,1.7-0.7,2.6c-0.7,2.3-0.7,2.3,1.7,2.2c0.9,0,1.1-0.2,0.9-1.1c-0.3-1.3-0.6-2.6-0.8-3.9
	C298.2,9.7,298.1,9.4,298,9.1L298,9.1z M51.1,20.9c0-1,0.1-2,0.3-2.9c0.1-0.5,0.5-0.9,0.9-1c0.5,0,0.9,0.3,1.1,0.6
	c0.8,0.9,1.5,2,2.4,2.8c0.8,0.8,2.1,1.1,3.2,0.7c0.7-0.2,1.1-0.9,0.9-1.6c-0.1-0.3-0.3-0.5-0.5-0.7c-0.9-0.5-1.8-1-2.7-1.5
	c-2.3-1.2-4.3-2.8-5-5.5c-0.6-2.5-0.4-5.1,0.6-7.5c1.2-3.3,4.7-5,8-3.9c0.8,0.3,1.7,0.3,2.4-0.2c0.4-0.3,0.9-0.2,1.2,0.2
	c0.1,0.2,0.2,0.3,0.2,0.5c0.3,1.3,0.5,2.5,0.7,3.8C64.9,5.5,64.9,6.3,65,7c0.1,0.7-0.3,1.3-1,1.6c-0.7,0.3-1-0.3-1.4-0.7
	c-0.7-0.9-1.4-1.7-2.2-2.5C60,5,59.4,4.7,58.8,4.6c-0.7-0.2-1.5,0.2-1.7,1c-0.3,0.6,0,1.3,0.6,1.6c0.7,0.5,1.5,0.9,2.3,1.4
	c0.9,0.5,1.8,1,2.6,1.6c2.8,2,3.4,4.9,3.1,8.2c-0.1,2.8-1.6,5.3-4.1,6.6c-2.3,1.2-5,1.3-7.4,0.4c-0.5-0.2-1-0.3-1.5-0.3
	c-0.5,0.1-1-0.3-1.1-0.8c0,0,0-0.1,0-0.1C51.4,23,51.2,21.8,51.1,20.9z"/>
<g>
	<path class="st1" d="M96.3,38.3c0,2.7,0,5.4,0,8.1c0,1.2,0,1.2-1.2,1.2h-1.1c0-0.4-0.1-0.8-0.1-1.1c0-4.1,0-8.2,0-12.4
		c-0.1-0.5,0.1-1,0.6-1.1c0.2,0,0.3-0.1,0.5,0c2.4,0,2.4,0,2.9,2.4c0.4,2.1,0.9,4.3,1.5,6.4c0.5-2.4,1-4.9,1.4-7.3
		c0.3-1.5,0.3-1.5,1.7-1.5c2.5,0,2.1-0.3,2.1,2.1c0,3.7,0,7.5,0,11.2c0,1.3,0,1.3-1.3,1.3h-1v-9.1l-0.2,0c-0.4,2.2-0.8,4.4-1.3,6.6
		c-0.1,0.3-0.1,0.7-0.2,1c-0.4,1.8,0,1.5-1.8,1.6c-0.4,0.1-0.9-0.2-1-0.6c0-0.1,0-0.1,0-0.2c-0.5-2.8-1.1-5.6-1.6-8.5L96.3,38.3z"/>
	<path class="st1" d="M255.4,39.8c1.4-1.8,1.6-3.7,0.6-5.3c-0.4-0.8-1.3-1.4-2.3-1.4c-1.7,0-3.4-0.1-5-0.1c-0.7,0-0.9,0.2-0.9,1
		c0,4.2,0,8.5,0,12.7c0,0.3,0,0.6,0.1,0.9c2.2,0,4.2,0,6.3,0c0.9,0,1.7-0.5,2.2-1.3C257.8,44.2,257.4,41.4,255.4,39.8z M250.4,35.5
		c1,0,2,0.1,3.1,0.2c0.8,0.2,0.8,0.9,0.8,1.6c0,0,0,0.1,0,0.1c0,0.7-0.6,1.2-1.3,1.2c-0.8,0.1-1.6,0-2.5,0V35.5z M254.7,43.5
		c-0.1,0.8-0.8,1.5-1.7,1.4c-0.9,0-1.7,0-2.6,0v-3.5h0l0,0v0c1,0,1.9,0,2.7,0c0,0,0.1,0,0.1,0c0.9,0.1,1.6,0.9,1.5,1.8
		C254.7,43.3,254.7,43.4,254.7,43.5z"/>
	<path class="st1" d="M297.3,41.1L297.3,41.1c-0.1,0,0,0,0.1-0.1c2.8-1,2.8-5.7,1-7.2c-0.5-0.4-1.1-0.7-1.8-0.7
		c-1.7-0.1-3.5-0.1-5.2-0.2c-0.8,0-1,0.3-1,1c0,4.2,0,8.5,0,12.7c0,0.3,0,0.5,0.1,0.8c0.3,0,0.5,0.1,0.8,0.1c1.9,0,1.6,0.2,1.6-1.6
		c0-1.4,0-2.9,0-4.3c0.9-0.2,1.8,0.3,2.2,1.1c0.7,1.4,1.4,2.8,2.2,4.2c0.1,0.3,0.4,0.5,0.6,0.6c0.8,0.1,1.6,0,2.7,0L297.3,41.1z
		 M296.2,38.9c-1,0.1-2.1,0.2-3.1,0.2h0v-3.4c1.1,0,2.1-0.1,3.1,0c0,0,0,0,0,0c0.7,0.1,1.1,0.8,1,1.4
		C297.1,37.9,297.1,38.8,296.2,38.9z"/>
	<path class="st1" d="M239.5,41.1L239.5,41.1c-0.1,0,0,0,0.1-0.1c2.8-1,2.8-5.7,1-7.2c-0.5-0.4-1.1-0.7-1.8-0.7
		c-1.7-0.1-3.5-0.1-5.2-0.2c-0.8,0-0.9,0.3-0.9,1c0,4.2,0,8.5,0,12.7c0,0.3,0,0.5,0.1,0.8c0.3,0,0.5,0.1,0.8,0.1
		c1.9,0,1.6,0.2,1.6-1.6c0-1.4,0-2.9,0-4.3c0.9-0.2,1.8,0.3,2.2,1.1c0.7,1.4,1.4,2.8,2.2,4.2c0.1,0.3,0.4,0.5,0.6,0.6
		c0.8,0.1,1.6,0,2.7,0L239.5,41.1z M239.3,37.4c0,0.7-0.1,1.4-0.9,1.5c-1,0.1-2,0.2-3.1,0.2v0h0c0,0,0,0,0,0v-3.4
		c1.1-0.1,2.2-0.1,3.3,0C239.2,35.9,239.3,36.7,239.3,37.4z"/>
	<path class="st1" d="M90,41.1c1-0.3,1.7-1.1,2-2.1c0.5-1.3,0.5-2.8-0.1-4.2c-0.4-1.1-1.4-1.8-2.6-1.8C87.6,33,85.9,33,84.2,33
		c-0.7,0-0.9,0.2-0.9,0.9c0,4.3,0,8.5,0,12.8c0,0.3,0,0.5,0.1,0.8c0.6,0,1.1,0,1.7,0c0.6,0,0.7-0.2,0.7-0.8c0-1.1,0-2.2,0-3.4v-1.9
		c0.9-0.1,1.8,0.3,2.2,1.2c0.7,1.4,1.4,2.8,2.2,4.2c0.1,0.3,0.4,0.5,0.7,0.6c0.8,0.1,1.5,0,2.6,0L90,41.1z M88.9,38.9
		c-1,0.2-2,0.2-3.1,0.2v-3.4h0l0,0v0c1,0,1.9,0,2.7,0c0.1,0,0.1,0,0.2,0c0.7,0.1,1.2,0.6,1.1,1.3C89.9,38.1,89.6,38.8,88.9,38.9z"/>
	<g>
		<polygon class="st2" points="289.4,40.4 289.4,40.4 289.4,40.4 		"/>
		<path class="st2" d="M283.8,32.7c-2-0.1-3.8,1.1-4.5,3c-1.3,2.9-1.3,6.2,0,9.1c0.7,1.9,2.5,3.2,4.6,3.1c2,0.1,3.8-1.2,4.5-3.1
			c0.5-1.5,0.8-2.9,1.1-4.4c-0.3-1.5-0.7-3.1-1.1-4.5C287.6,33.9,285.8,32.7,283.8,32.7z M286.1,43.3c-0.3,1-1.2,1.7-2.3,1.8
			c-1.1,0.1-2.1-0.7-2.4-1.7c-0.3-1-0.5-2-0.7-3.1c0,0,0,0,0,0v0c0,0,0,0,0,0c0.2-1.1,0.4-2.1,0.7-3.1c0.2-0.8,0.8-1.4,1.6-1.6
			c1.3-0.4,2.7,0.3,3.1,1.6C286.9,39.2,286.8,41.4,286.1,43.3z"/>
	</g>
	<path class="st1" d="M206.6,35.2c-0.5-1.3-1.8-2.1-3.1-2.1c-1.4,0-2.9-0.1-4.3-0.1c-0.1,0-0.2,0-0.3,0c-0.3,0.1-0.5,0.5-0.5,0.8
		c0,1.5,0,3,0,4.5v9.2l0,0c1.6,0,3.2,0,4.7,0c1.5,0.1,2.9-0.7,3.5-2.1C208.1,42.2,208.1,38.4,206.6,35.2z M204.8,43
		c-0.2,1.5-0.8,1.9-2.3,1.9c-0.5,0-1.1,0-1.7,0c0-3,0-5.8,0-8.7c0-0.2,0.2-0.4,0.4-0.5c1.9-0.6,3.5,0.3,3.8,2.2
		C205.1,39.7,205.1,41.3,204.8,43z"/>
	<path class="st1" d="M128.7,47.6c0-0.4,0-0.7,0-0.9c0-4.2,0-8.4,0-12.6c0-0.7,0.2-1,0.9-1c2.1,0,4.3,0,6.4,0c0.4-0.1,0.9,0.2,1,0.6
		c0,0.1,0,0.3,0,0.4c-0.1,1.9,0.2,1.7-1.7,1.7c-1.1,0-2.2,0-3.3,0c-0.5,0-0.8,0.1-0.8,0.7c0,0.7,0,1.3,0,2.2h3.6
		c1.9,0,2.1,0.3,1.8,2.2c-0.1,0.3-0.4,0.5-0.7,0.5c-1.3,0.1-2.5,0.1-3.8,0c-0.4-0.1-0.8,0.1-0.9,0.5c0,0.1,0,0.3,0,0.4
		c0.1,0.9,0,1.7,0,2.7c1.7,0,3.3,0,4.9,0c0.4,0,0.7,0.1,1,0.3c0.1,0.7,0,1.5,0,2.2c-0.1,0.1-0.3,0.1-0.4,0.1
		C134,47.6,131.4,47.6,128.7,47.6L128.7,47.6z"/>
	<path class="st1" d="M220.2,37.4c-0.7,0.3-1-0.1-1.2-0.9c-0.4-0.9-1.4-1.4-2.4-1c-0.2,0.1-0.5,0.2-0.6,0.4
		c-0.4,0.5-0.4,1.2,0.1,1.6c0.1,0.1,0.1,0.1,0.2,0.2c0.7,0.4,1.5,0.7,2.2,0.9c3.4,1.1,3.9,3.7,3.2,6.4c-0.4,1.7-2,3-3.8,2.9
		c-1.8,0.3-3.6-0.7-4.4-2.4c-0.2-0.6-0.4-1.2-0.6-1.8c-0.2-0.4-0.1-0.9,0.3-1.1c0.1-0.1,0.3-0.1,0.5-0.1c1.3-0.2,1.3-0.2,1.8,1.1
		c0.3,1.1,1.5,1.8,2.6,1.4c0.4-0.1,0.7-0.3,1-0.6c0.6-0.6,0.6-1.6,0-2.2c-0.1-0.1-0.3-0.2-0.5-0.3c-0.8-0.4-1.7-0.6-2.5-1
		c-2.3-0.9-3.4-3.5-2.5-5.8c0-0.1,0.1-0.2,0.1-0.3c0.8-1.6,2.5-2.5,4.2-2.2c1.8,0,3.3,1.3,3.6,3C221.8,37.4,221.8,37.5,220.2,37.4
		L220.2,37.4z"/>
	<path class="st1" d="M308.3,37.4c-0.7,0.2-1,0-1.2-0.8c-0.4-1-1.4-1.4-2.4-1.1c-0.2,0.1-0.5,0.2-0.7,0.4c-0.4,0.5-0.4,1.2,0.1,1.6
		c0.1,0.1,0.2,0.1,0.3,0.2c0.7,0.4,1.5,0.7,2.3,0.9c3.5,1.1,3.7,4.1,3,6.4c-0.5,1.7-2,2.9-3.7,2.9c-1.8,0.3-3.5-0.7-4.3-2.3
		c-0.2-0.3-0.3-0.7-0.4-1c-0.5-2.2-0.5-1.9,1.6-2.1c0.3,0.1,0.5,0.4,0.6,0.7c0.4,1.5,1.2,2.1,2.6,1.9c0.8-0.1,1.4-0.7,1.5-1.5
		c0.2-0.7-0.2-1.5-1-1.7c-0.8-0.3-1.6-0.6-2.4-0.9c-2.3-0.9-3.4-3.4-2.5-5.7c0-0.1,0.1-0.1,0.1-0.2c1-2.1,3.5-3,5.6-2
		c1,0.5,1.7,1.3,2.1,2.2c0.1,0.3,0.2,0.7,0.3,1.1c0.2,0.7,0,1-0.7,0.9C308.7,37.4,308.6,37.4,308.3,37.4L308.3,37.4z"/>
	<path class="st1" d="M67.8,41.4h-4c0,1.3,0,2.6,0,3.8c0,0.5,0,1,0,1.5c0,0.6-0.1,0.9-0.7,0.8c-0.5,0-1.1,0-1.6,0
		c0-0.4-0.1-0.6-0.1-0.9c0-4.2,0-8.5,0-12.7c0-1.1,0.6-1,1.2-1s1.3-0.1,1.3,1c-0.1,1.5,0,3.1,0,4.7h4c0-1.4,0-2.8,0-4.2
		c-0.1-0.4,0-0.9,0.2-1.3c0.6-0.1,1.2-0.2,1.9-0.1c0.2,0.1,0.3,0.4,0.3,0.6c0,4.4,0,8.8,0,13.3c-0.1,0.3-0.3,0.5-0.5,0.6
		c-0.6,0.1-1.3,0.1-1.9,0V41.4L67.8,41.4z"/>
	<path class="st1" d="M267.6,38.9c0,1.5,0.1,3,0,4.5c-0.1,2.9-1.5,4.4-4.1,4.5c-2.8,0.1-4.5-1.4-4.6-4.3c-0.2-3.3-0.1-6.7-0.1-10
		c0.1-0.3,0.3-0.5,0.6-0.6c0.1,0,0.2,0,0.3,0c1.6-0.1,1.6-0.1,1.6,1.5c0,2.6,0,5.2,0,7.8c0,0.5,0.1,1,0.2,1.5c0.3,1,1.3,1.5,2.3,1.3
		c0,0,0,0,0,0c0.8-0.2,1.4-0.9,1.4-1.8c0.1-2.8,0.1-5.6,0.1-8.4c0-0.2,0-0.4,0-0.5c-0.1-0.7,0.3-1.5,1.1-1.6c0.4-0.1,0.7,0,1,0.2
		c0.2,0.2,0.4,0.5,0.4,0.8c0,1.7,0,3.3,0,5L267.6,38.9L267.6,38.9z"/>
	<path class="st1" d="M147.5,38.8c0,1.5,0.1,3,0,4.5c-0.1,3-1.6,4.5-4.2,4.5c-2.7,0-4.4-1.5-4.5-4.4c-0.1-3.3-0.1-6.6,0-9.9
		c0.1-0.3,0.3-0.5,0.5-0.6c0.1,0,0.2,0,0.3,0c1.6-0.1,1.6-0.1,1.6,1.5c0,2.6,0,5.2,0,7.8c0,0.5,0.1,1.1,0.2,1.6
		c0.3,0.9,1.3,1.5,2.2,1.2c0.8-0.2,1.4-0.9,1.4-1.8c0.1-3.1,0.1-6.1,0.1-9.2c0-0.4,0.1-0.8,0.3-1.1c0.6-0.1,1.3-0.1,1.9,0
		c0.1,0.2,0.2,0.5,0.2,0.8c0,1.6,0,3.3,0,4.9L147.5,38.8L147.5,38.8z"/>
	<path class="st1" d="M82,46.5c-1.2-4-2.4-8-3.6-12.1c-0.5-1.5-0.5-1.5-2-1.5c0,0,0,0-0.1,0c-0.6-0.1-1.1,0.4-1.2,1
		c-0.6,2.4-1.4,4.7-2.1,7c-0.6,2.1-1.2,4.3-1.9,6.5h0c2.4,0.4,2.5,0.4,3-1.7c0.1-0.2,0.1-0.4,0.2-0.6c0-0.1,0-0.2,0-0.3
		c0.1-0.4,0.6-0.7,1.1-0.5c0.2,0,0.4,0,0.6,0c0.8,0,1.9-0.3,2.4,0.1c0.5,0.4,0.6,1.5,0.9,2.3c0,0.2,0.1,0.3,0.2,0.5
		c0.1,0.1,0.2,0.3,0.4,0.3c0.7,0,1.5,0,2.3,0C82.2,47.1,82.1,46.8,82,46.5z M75.4,41.6c0.4-1.4,0.8-2.8,1.1-4.2l0.2,0v0h0l0,0
		c0.4,1.4,0.8,2.8,1.2,4.2H75.4z"/>
	<path class="st1" d="M116.6,47c-1.3-4.5-2.7-9-4-13.5c-0.3-1-1.1-0.5-1.8-0.6c0,0-0.1,0-0.1,0c-0.5-0.1-0.9,0.2-1,0.7
		c-0.6,2.3-1.3,4.6-2,7c-0.7,2.3-1.3,4.5-2,6.8h0c2.4,0.4,2.5,0.4,3.1-1.7c0-0.1,0.1-0.2,0.1-0.3c0-0.2,0-0.3,0.1-0.5
		c0.2-0.6,0.9-0.9,1.5-0.7c0.9,0.1,2.1-0.3,2.7,0.2c0.6,0.4,0.6,1.6,0.9,2.5c0,0.1,0.1,0.2,0.1,0.3c0.1,0.1,0.2,0.2,0.4,0.3
		c0.7,0,1.5,0,2.2,0C116.6,47.3,116.6,47.2,116.6,47z M112.3,41.6h-2.5l1.2-4.3l0.2,0C111.5,38.7,111.9,40.1,112.3,41.6L112.3,41.6z
		"/>
	<path class="st1" d="M183.7,46.5c-1.2-4-2.4-8-3.6-12c-0.5-1.5-0.5-1.5-2.1-1.5c0,0,0,0,0,0c-0.6-0.1-1.1,0.4-1.1,0.9
		c-0.9,3.3-1.9,6.5-2.9,9.8c-0.4,1.2-0.7,2.5-1.1,3.9c0.6,0,1.1,0,1.7,0c0.1,0,0.2,0,0.2,0c0.5,0,0.9-0.4,1-0.9
		c0.1-0.6,0.3-1.2,0.5-1.8c0.1-0.2,0.2-0.4,0.5-0.5c1.2,0,2.5,0,3.7,0c0.3,0.8,0.6,1.6,0.8,2.5c0,0.1,0,0.2,0.1,0.3
		c0.2,0.2,0.4,0.4,0.6,0.5c0.6,0.1,1.3,0,2.1,0C183.9,47.1,183.8,46.8,183.7,46.5z M177.1,41.6l1.2-4.2l0.2,0l1.2,4.2H177.1z"/>
	<path class="st1" d="M59.3,35c-0.4-1.2-1.5-2-2.8-2c-1.5,0-2.9,0-4.4-0.1c-0.7,0-0.9,0.2-0.9,0.9c0,4.3,0,8.5,0,12.8
		c0,0.2,0,0.5,0.1,0.8l0,0c0.6,0,1.1,0,1.6,0c0.6,0,0.8-0.2,0.8-0.8c0-0.9,0-1.8,0-2.7c0-1.8,0-1.8,1.7-1.8c1.8,0,3.3-0.5,4-2.4
		C60,38.3,59.9,36.6,59.3,35z M57,38.7c-0.8,1.3-2.1,0.6-3.3,0.8v0v-3.7c1.1,0.1,2.2-0.5,3.1,0.5C57.3,37,57.4,37.9,57,38.7z"/>
	<path class="st1" d="M172.5,37.2l-2.3,0.8c-0.1-0.3-0.2-0.7-0.4-0.9c-0.2-0.8-1-1.4-1.8-1.4c-0.9-0.1-1.7,0.4-2,1.2
		c-1,2.3-1,4.9,0,7.1c0.3,0.8,1.1,1.4,2,1.3c0.8-0.1,1.5-0.6,1.7-1.4c0.2-0.5,0.3-1,0.5-1.6c0.7,0.3,1.3,0.5,2,0.8
		c0.2,0.1,0.2,0.3,0.2,0.5c-0.2,2.1-1.7,3.9-3.8,4.4c-1.5,0.3-3.1-0.3-4.1-1.5c-1.3-1.7-1.9-3.9-1.7-6.1c0.1-1.5,0.3-2.9,0.8-4.3
		c0.7-2.3,3.2-3.6,5.6-2.9C171.2,33.5,172.1,35.1,172.5,37.2L172.5,37.2z"/>
	<path class="st1" d="M126.9,37.2l-2.3,0.7c-0.1-0.3-0.2-0.7-0.4-0.9c-0.2-0.8-1-1.4-1.8-1.4c-0.9-0.1-1.7,0.4-2,1.2
		c-0.7,1.6-0.9,3.3-0.6,5c0.1,0.7,0.2,1.4,0.5,2.1c0.4,1,1.5,1.6,2.5,1.2c0.6-0.2,1.1-0.7,1.3-1.3c0.2-0.5,0.3-1,0.5-1.6
		c0.7,0.3,1.3,0.5,2,0.8c0.1,0.1,0.2,0.3,0.2,0.5c-0.2,2.1-1.7,3.9-3.8,4.4c-1.5,0.3-3.1-0.3-4.1-1.6c-1.3-1.7-1.9-3.9-1.7-6.1
		c0.1-1.5,0.3-2.9,0.8-4.3c0.7-2.3,3.2-3.7,5.6-2.9C125.7,33.5,126.5,35.1,126.9,37.2L126.9,37.2z"/>
	<path class="st1" d="M154.6,47.5c-2.4,0.3-2.4,0.3-2.4-2c0-2.9,0-5.8,0-8.7c0-0.9-0.3-1.2-1.1-1.1c-0.3,0-0.5,0-0.8,0
		c-1.3,0-1.3,0-1.3-1.3c0-1.4,0-1.4,1.4-1.4c2.1,0,4.3,0,6.4,0c0.7,0,1.1,0.2,1,1c-0.1,2,0.2,1.7-1.7,1.7c-1.4,0-1.4,0-1.4,1.4
		c0,3.1,0,6.2,0,9.3C154.6,46.7,154.6,47.1,154.6,47.5L154.6,47.5z"/>
	<path class="st1" d="M226,41.6c0-1.7,0-3.4,0-5.1c0-0.6-0.2-0.9-0.8-0.8c-0.2,0-0.4,0-0.5,0c-2,0-2.1-0.1-1.8-2.1
		c0.1-0.3,0.3-0.5,0.6-0.6c2.5,0,5,0,7.5,0c0.3-0.1,0.6,0.1,0.7,0.5c0,0.1,0,0.2,0,0.2c0,2.4,0.2,2-1.9,2c-1.3,0-1.3,0-1.3,1.3
		c0,3.1,0,6.3,0,9.4c0,0.8-0.2,1.2-1.1,1.1c-1.4-0.1-1.4,0.3-1.4-1.4C226,44.7,226,43.1,226,41.6L226,41.6z"/>
	<path class="st1" d="M272.2,41.6c0-1.7,0-3.4,0-5.1c0-0.6-0.2-0.9-0.8-0.8c-0.2,0-0.4,0-0.5,0c-2,0-2.1-0.1-1.8-2.1
		c0.1-0.3,0.3-0.5,0.6-0.6c2.5,0,5,0,7.5,0c0.3-0.1,0.6,0.1,0.7,0.5c0,0.1,0,0.2,0,0.2c0,2.4,0.2,2-1.9,2c-1.3,0-1.3,0-1.3,1.3
		c0,3.1,0,6.3,0,9.4c0,0.8-0.2,1.2-1.1,1.1c-1.4-0.1-1.4,0.3-1.4-1.4C272.2,44.7,272.2,43.1,272.2,41.6L272.2,41.6z"/>
	<path class="st1" d="M187.5,44.9c1.6,0,3,0.1,4.4,0c0.4-0.1,0.9,0.1,1.1,0.5c0.1,0.2,0.1,0.4,0,0.6c0,0.1,0,0.2,0,0.3
		c0,1.3,0,1.3-1.3,1.3h-6.6c0-0.4-0.1-0.7-0.1-1c0-4.1,0-8.3,0-12.4c0-1.1,0.5-1.1,1.3-1.1s1.3,0,1.2,1.1c-0.1,3.2,0,6.4,0,9.6
		L187.5,44.9L187.5,44.9z"/>
	<path class="st1" d="M161.2,47.4c-0.1,0-0.2,0.1-0.2,0.1c-2.2,0.2-2.2,0.2-2.2-2c0-3.8,0-7.7,0-11.5c0-1.1,0.5-1.1,1.3-1.1
		c0.8,0,1.3,0.1,1.3,1.1c-0.1,4.1,0,8.3,0,12.4C161.3,46.8,161.2,47.2,161.2,47.4L161.2,47.4z"/>
	<path class="st1" d="M211.4,47.4c-0.1,0-0.2,0.1-0.2,0.1c-2.2,0.2-2.2,0.2-2.2-2c0-3.8,0-7.7,0-11.5c0-1.1,0.5-1.1,1.3-1.1
		c0.8,0,1.3,0.1,1.3,1.1c-0.1,4.1,0,8.3,0,12.4C211.5,46.8,211.5,47.2,211.4,47.4L211.4,47.4z"/>
	<path class="st1" d="M246,47.4c-0.1,0-0.2,0.1-0.2,0.1c-2.2,0.2-2.2,0.2-2.2-2c0-3.8,0-7.7,0-11.5c0-1.1,0.5-1.1,1.3-1.1
		c0.8,0,1.3,0.1,1.3,1.1c-0.1,4.1,0,8.3,0,12.4C246.1,46.8,246,47.2,246,47.4L246,47.4z"/>
</g>
</svg>
